<?xml version="1.0" standalone="no"?><!DOCTYPE svg PUBLIC "-//W3C//DTD SVG 1.1//EN" "http://www.w3.org/Graphics/SVG/1.1/DTD/svg11.dtd"><svg t="1536028995549" class="icon" style="" viewBox="0 0 1024 1024" version="1.1" xmlns="http://www.w3.org/2000/svg" p-id="1861" data-spm-anchor-id="a313x.7781069.0.i4" xmlns:xlink="http://www.w3.org/1999/xlink" width="300" height="300"><defs><style type="text/css"></style></defs><path d="M512.002 36.678c262.507 0 475.317 212.812 475.317 475.317 0 262.509-212.81 475.324-475.317 475.324-262.508 0-475.325-212.808-475.325-475.324C36.675 249.49 249.489 36.678 512.002 36.678z m35.693 677.843V304.99s-13.024-37.626-45.35-9.18c-32.315 28.46-109.498 99.38-109.498 99.38H272.005c-8.185 0-21.441-0.926-21.441 28.974v176.551c0 14.051 10.564 24.116 22.197 24.116h113.843l116.964 101.527c17.005 14.765 44.127 22.36 44.127-11.837z m225.43-189.352c3.808-73.276-29.887-140.625-86.686-188.66-18.58-12.444-45.874 13.09-34.588 28.585 47.858 40.223 76.25 96.724 73.07 158.281-2.913 55.942-31.299 105.758-75.325 141.79-15.326 18.389 21.088 39.206 33.197 29.769 52.805-43.092 86.895-102.794 90.332-169.765z m-143.221-5.687c-1.794 35.071-19.047 66.489-45.916 89.769-13.406 16.381 15.993 38.346 32.158 26.461 34.283-29.708 56.227-69.804 58.545-114.561 2.587-50.045-19.896-96.1-58.01-129.45-18.783-14.038-45.37 12.643-33.659 25.18 30.742 26.198 48.939 62.8 46.882 102.601z" fill="#00C0FF" p-id="1862"></path></svg>