<?xml version="1.0" standalone="no"?><!DOCTYPE svg PUBLIC "-//W3C//DTD SVG 1.1//EN" "http://www.w3.org/Graphics/SVG/1.1/DTD/svg11.dtd"><svg t="1544087039584" class="icon" style="" viewBox="0 0 1024 1024" version="1.1" xmlns="http://www.w3.org/2000/svg" p-id="12224" xmlns:xlink="http://www.w3.org/1999/xlink" width="200" height="200"><defs><style type="text/css"></style></defs><path d="M823.1 945.3H204c-67.6 0-122.7-55-122.7-122.7V203.5c0-67.6 55-122.7 122.7-122.7h619.1c67.6 0 122.7 55 122.7 122.7v619.1c0 67.7-55.1 122.7-122.7 122.7zM204 138.2c-36 0-65.4 29.3-65.4 65.4v619.1c0 36 29.3 65.4 65.4 65.4h619.1c36 0 65.4-29.3 65.4-65.4V203.5c0-36-29.3-65.4-65.4-65.4H204z" p-id="12225" fill="#bfbfbf"></path><path d="M438.2 707.2h-0.5c-8.5-0.1-16.6-3.7-22.5-9.9L235.3 508.8c-12.1-12.7-11.7-32.9 1.1-45 12.7-12.1 32.9-11.7 45 1.1L439 630l307.5-301.9c12.5-12.3 32.7-12.1 45 0.4 12.3 12.5 12.1 32.7-0.4 45L460.5 698.1c-5.9 5.8-14 9.1-22.3 9.1z" p-id="12226" fill="#bfbfbf"></path></svg>