<?xml version="1.0" standalone="no"?><!DOCTYPE svg PUBLIC "-//W3C//DTD SVG 1.1//EN" "http://www.w3.org/Graphics/SVG/1.1/DTD/svg11.dtd"><svg t="1543465190610" class="icon" style="" viewBox="0 0 1024 1024" version="1.1" xmlns="http://www.w3.org/2000/svg" p-id="1212" xmlns:xlink="http://www.w3.org/1999/xlink" width="200" height="200"><defs><style type="text/css"></style></defs><path d="M0 127.619858C0 57.137357 57.24888 0 127.619858 0L896.380141 0C966.862643 0 1024 57.24888 1024 127.619858L1024 896.380141C1024 966.862643 966.751117 1024 896.380141 1024L127.619858 1024C57.137357 1024 0 966.751117 0 896.380141L0 127.619858ZM466.876563 681.718099C491.88828 711.222528 532.093696 711.631373 557.452004 681.718099L818.802669 373.422496C843.814387 343.918066 832.018349 320 794.029114 320L230.299453 320C191.605677 320 180.167588 343.50922 205.525895 373.422496L466.876563 681.718099Z" p-id="1213" fill="#1296db"></path></svg>