<?xml version="1.0" encoding="UTF-8"?>
<svg width="12px" height="12px" viewBox="0 0 12 12" version="1.1" xmlns="http://www.w3.org/2000/svg" xmlns:xlink="http://www.w3.org/1999/xlink">
    <!-- Generator: Sketch 46.2 (44496) - http://www.bohemiancoding.com/sketch -->
    <title>comm</title>
    <desc>Created with Sketch.</desc>
    <defs></defs>
    <g id="Page-1" stroke="none" stroke-width="1" fill="none" fill-rule="evenodd">
        <g id="comm">
            <g id="Icons/bubble-chat">
                <g id="Filled_Icons_1_" fill-rule="nonzero" fill="#9B9B9B">
                    <g id="Filled_Icons">
                        <path d="M6.11623529,0.424941176 C3.00235294,0.424941176 0.469176471,2.51152941 0.469176471,5.07576471 C0.469176471,6.28658824 1.02305882,7.42164706 2.03388235,8.29035294 L0.899764706,10.5543529 C0.799529412,10.7538824 1.01082353,10.9670588 1.20941176,10.8729412 L4.23858824,9.46352941 C4.84,9.63764706 5.47105882,9.72611765 6.11623529,9.72611765 C9.23011765,9.72611765 11.7632941,7.64 11.7632941,5.07576471 C11.7632941,2.51152941 9.22964706,0.424941176 6.11623529,0.424941176 Z M4,3.76470588 L7.05882353,3.76470588 C7.18870588,3.76470588 7.29411765,3.87011765 7.29411765,4 C7.29411765,4.12988235 7.18870588,4.23529412 7.05882353,4.23529412 L4,4.23529412 C3.87011765,4.23529412 3.76470588,4.12988235 3.76470588,4 C3.76470588,3.87011765 3.87011765,3.76470588 4,3.76470588 Z M8.47058824,7.05882353 L4,7.05882353 C3.87011765,7.05882353 3.76470588,6.95341176 3.76470588,6.82352941 C3.76470588,6.69364706 3.87011765,6.58823529 4,6.58823529 L8.47058824,6.58823529 C8.60047059,6.58823529 8.70588235,6.69364706 8.70588235,6.82352941 C8.70588235,6.95341176 8.60047059,7.05882353 8.47058824,7.05882353 Z M8.47058824,5.64705882 L4,5.64705882 C3.87011765,5.64705882 3.76470588,5.54164706 3.76470588,5.41176471 C3.76470588,5.28188235 3.87011765,5.17647059 4,5.17647059 L8.47058824,5.17647059 C8.60047059,5.17647059 8.70588235,5.28188235 8.70588235,5.41176471 C8.70588235,5.54164706 8.60047059,5.64705882 8.47058824,5.64705882 Z" id="Shape"></path>
                    </g>
                </g>
                <g id="Invisible_Shape" transform="translate(0.470588, 0.000000)">
                    <rect id="Rectangle-path" x="0" y="0" width="11.2941176" height="11.2941176"></rect>
                </g>
            </g>
        </g>
    </g>
</svg>