<?xml version="1.0" encoding="UTF-8"?>
<svg width="120px" height="120px" viewBox="0 0 120 120" version="1.1" xmlns="http://www.w3.org/2000/svg" xmlns:xlink="http://www.w3.org/1999/xlink">
    <!-- Generator: Sketch 46.2 (44496) - http://www.bohemiancoding.com/sketch -->
    <title>Artboard</title>
    <desc>Created with Sketch.</desc>
    <defs></defs>
    <g id="Page-1" stroke="none" stroke-width="1" fill="none" fill-rule="evenodd">
        <g id="Artboard">
            <rect id="Rectangle" fill="#D7D7D7" x="0" y="0" width="120" height="120"></rect>
            <path d="M102,108 L18,108 C14.686,108 12,105.314 12,102 L12,18 C12,14.686 14.686,12 18,12 L102,12 C105.314,12 108,14.686 108,18 L108,102 C108,105.314 105.314,108 102,108 L102,108 Z M100,20 L20,20 L20,84 L100,84 L100,20 L100,20 Z M38,28 C43.524,28 48,32.478 48,38 C48,43.524 43.524,48 38,48 C32.478,48 28,43.524 28,38 C28,32.478 32.478,28 38,28 L38,28 Z M55.184,64.246 L70,40 L92,76 L64,76 L48,76 L28,76 L46,52 L55.184,64.246 L55.184,64.246 Z" id="Place-your-image-here" fill="#595959" opacity="0.3"></path>
        </g>
    </g>
</svg>