<?xml version="1.0" encoding="UTF-8"?>
<svg width="120px" height="120px" viewBox="0 0 120 120" version="1.1" xmlns="http://www.w3.org/2000/svg" xmlns:xlink="http://www.w3.org/1999/xlink">
    <!-- Generator: Sketch 46.2 (44496) - http://www.bohemiancoding.com/sketch -->
    <title>Artboard Copy</title>
    <desc>Created with Sketch.</desc>
    <defs>
        <rect id="path-1" x="0" y="0" width="18" height="18"></rect>
        <rect id="path-2" x="0" y="0" width="18" height="18"></rect>
        <rect id="path-3" x="0" y="0" width="18" height="18"></rect>
        <rect id="path-4" x="0" y="0" width="18" height="18"></rect>
    </defs>
    <g id="Page-1" stroke="none" stroke-width="1" fill="none" fill-rule="evenodd">
        <g id="Artboard-Copy">
            <g id="Group" transform="translate(17.000000, 17.000000)">
                <g id="Rectangle">
                    <use fill="#FFFFFF" fill-rule="evenodd" xlink:href="#path-1"></use>
                    <rect stroke="#979797" stroke-width="2" x="1" y="1" width="16" height="16"></rect>
                </g>
                <rect id="Rectangle-2" fill="#979797" x="4" y="4" width="10" height="10"></rect>
            </g>
            <g id="Group-Copy" transform="translate(85.000000, 17.000000)">
                <g id="Rectangle">
                    <use fill="#FFFFFF" fill-rule="evenodd" xlink:href="#path-2"></use>
                    <rect stroke="#979797" stroke-width="2" x="1" y="1" width="16" height="16"></rect>
                </g>
                <rect id="Rectangle-2" fill="#979797" x="4" y="4" width="10" height="10"></rect>
            </g>
            <g id="Group-Copy-2" transform="translate(85.000000, 85.000000)">
                <g id="Rectangle">
                    <use fill="#FFFFFF" fill-rule="evenodd" xlink:href="#path-3"></use>
                    <rect stroke="#979797" stroke-width="2" x="1" y="1" width="16" height="16"></rect>
                </g>
                <rect id="Rectangle-2" fill="#979797" x="4" y="4" width="10" height="10"></rect>
            </g>
            <g id="Group-Copy-3" transform="translate(19.000000, 85.000000)">
                <g id="Rectangle">
                    <use fill="#FFFFFF" fill-rule="evenodd" xlink:href="#path-4"></use>
                    <rect stroke="#979797" stroke-width="2" x="1" y="1" width="16" height="16"></rect>
                </g>
                <rect id="Rectangle-2" fill="#979797" x="4" y="4" width="10" height="10"></rect>
            </g>
            <text id="二维码" font-family="PingFangSC-Medium, PingFang SC" font-size="18" font-weight="400" fill="#979797">
                <tspan x="35" y="65">二维码</tspan>
            </text>
            <rect id="Rectangle-5" fill="#979797" x="3" y="3" width="4" height="32"></rect>
            <rect id="Rectangle-5-Copy-2" fill="#979797" x="113" y="3" width="4" height="32"></rect>
            <rect id="Rectangle-5-Copy" fill="#979797" x="3" y="85" width="4" height="32"></rect>
            <rect id="Rectangle-5-Copy-3" fill="#979797" x="113" y="85" width="4" height="32"></rect>
            <rect id="Rectangle-6" fill="#979797" x="3" y="3" width="32" height="4"></rect>
            <rect id="Rectangle-6-Copy" fill="#979797" x="3" y="113" width="32" height="4"></rect>
            <rect id="Rectangle-6-Copy-2" fill="#979797" x="85" y="113" width="32" height="4"></rect>
            <rect id="Rectangle-6-Copy-3" fill="#979797" x="85" y="3" width="32" height="4"></rect>
        </g>
    </g>
</svg>