<?xml version="1.0" encoding="UTF-8"?>
<svg width="36px" height="36px" viewBox="0 0 36 36" version="1.1" xmlns="http://www.w3.org/2000/svg" xmlns:xlink="http://www.w3.org/1999/xlink">
    <!-- Generator: Sketch 46.2 (44496) - http://www.bohemiancoding.com/sketch -->
    <title>Group</title>
    <desc>Created with Sketch.</desc>
    <defs></defs>
    <g id="Page-1" stroke="none" stroke-width="1" fill="none" fill-rule="evenodd">
        <g id="Artboard" transform="translate(-1386.000000, -545.000000)">
            <g id="Group" transform="translate(1386.000000, 545.000000)">
                <circle id="Oval" fill="#D7D7D7" cx="18" cy="18" r="18"></circle>
                <path d="M25.6401818,28.0014037 C23.9048182,28.2870284 21.8649545,28.3636364 18,28.3636364 C14.1350455,28.3636364 12.0951818,28.2870284 10.3598182,28.0014037 C7.9305,27.6003941 6.54545455,26.7416283 6.54545455,25.2993179 C6.54545455,23.3945224 9.01963636,20.7378339 12.4598182,19.2 C13.8496364,21.2892221 15.8131364,22.6899183 18,22.6899183 C20.1868636,22.6899183 22.1503636,21.2892221 23.5401818,19.2 C26.9803636,20.7378339 29.4545455,23.3945224 29.4545455,25.2993179 C29.4545455,26.7416283 28.0695,27.6003941 25.6401818,28.0014037 L25.6401818,28.0014037 Z M18.3818182,20.7272727 C15.2108182,20.7272727 12.6545455,16.5177273 12.6545455,12.1926818 C12.6545455,8.16545455 15.0456818,5.45454545 18.3818182,5.45454545 C21.7179545,5.45454545 24.1090909,8.16545455 24.1090909,12.1926818 C24.1090909,16.5177273 21.5528182,20.7272727 18.3818182,20.7272727 L18.3818182,20.7272727 Z" id="User-Icon" fill="#A2A2A2"></path>
            </g>
        </g>
    </g>
</svg>