<?xml version="1.0" encoding="UTF-8"?>
<svg width="32px" height="32px" viewBox="0 0 32 32" version="1.1" xmlns="http://www.w3.org/2000/svg" xmlns:xlink="http://www.w3.org/1999/xlink">
    <!-- Generator: Sketch 48.2 (47327) - http://www.bohemiancoding.com/sketch -->
    <title>download</title>
    <desc>Created with Sketch.</desc>
    <defs></defs>
    <g id="Page-1" stroke="none" stroke-width="1" fill="none" fill-rule="evenodd">
        <g id="download" fill="#1A1919">
            <g id="Download" transform="translate(2.000000, 2.000000)">
                <path d="M27.3333333,13.4814815 C26.9653333,13.4814815 26.6666667,13.7771313 26.6666667,14.1414141 L26.6666667,24.040404 C26.6666667,25.4955556 25.4706667,26.6801347 24,26.6801347 L4,26.6801347 C2.53,26.6801347 1.33333333,25.4955556 1.33333333,24.040404 L1.33333333,14.1414141 C1.33333333,13.7771313 1.03533333,13.4814815 0.666666667,13.4814815 C0.298666667,13.4814815 0,13.7771313 0,14.1414141 L0,24.040404 C0,26.2274209 1.79066667,28 4,28 L24,28 C26.2093333,28 28,26.2274209 28,24.040404 L28,14.1414141 C28,13.7771313 27.7013333,13.4814815 27.3333333,13.4814815" id="Fill-244"></path>
                <path d="M14.0475272,21.5805428 C14.3079356,21.8435228 14.7295176,21.8435228 14.98926,21.5805428 L21.5827211,14.9048968 C21.8424635,14.6412425 21.8431296,14.2150801 21.5827211,13.9514258 C21.3223127,13.6877715 20.9007308,13.6877715 20.6409884,13.9514258 L15.1843998,19.4753542 L15.1843998,0.674307674 C15.1843998,0.302089838 14.886029,0 14.5183936,0 C14.1507582,0 13.8523874,0.302089838 13.8523874,0.674307674 L13.8523874,19.4753542 L8.39646481,13.9514258 C8.13605639,13.6877715 7.71447448,13.6877715 7.45406607,13.9514258 C7.19432366,14.2144058 7.19432366,14.6419168 7.45406607,14.9048968 L14.0475272,21.5805428" id="Fill-245"></path>
            </g>
        </g>
    </g>
</svg>