<?xml version="1.0" encoding="UTF-8"?>
<svg width="54px" height="54px" viewBox="0 0 54 54" version="1.1" xmlns="http://www.w3.org/2000/svg" xmlns:xlink="http://www.w3.org/1999/xlink">
    <!-- Generator: Sketch 46.2 (44496) - http://www.bohemiancoding.com/sketch -->
    <title>info_active</title>
    <desc>Created with Sketch.</desc>
    <defs></defs>
    <g id="home" stroke="none" stroke-width="1" fill="none" fill-rule="evenodd">
        <g id="info_active" fill="#3EC6FF">
            <path d="M39.004,8.5 L35.004,8.5 L35.004,23.5 C35.004,23.9 34.776,24.262 34.418,24.422 C34.286,24.48 34.144,24.5 34.004,24.5 C33.768,24.5 33.532,24.422 33.348,24.262 L30.004,21.342 L26.664,24.262 C26.368,24.52 25.948,24.58 25.592,24.422 C25.234,24.262 25.004,23.9 25.004,23.5 L25.004,8.5 L9.126,8.5 C9.058,8.82 9.004,9.142 9.004,9.462 L9.004,44.722 C9.004,47.9 11.604,50.5 14.796,50.5 L38.062,50.5 C38.384,50.5 38.696,50.462 39.004,50.382 L39.004,8.5" id="Fill-6505"></path>
            <path d="M30.664,19.262 L33.004,21.302 L33.004,8.5 L27.004,8.5 L27.004,21.302 L29.348,19.262 C29.722,18.92 30.286,18.92 30.664,19.262" id="Fill-6506"></path>
            <path d="M44.004,2.5 L16.128,2.5 C15.936,2.5 15.746,2.56 15.582,2.66 L11.092,5.602 C10.708,5.86 10.386,6.16 10.102,6.5 L40.004,6.5 C40.558,6.5 41.004,6.962 41.004,7.5 L41.004,49.422 C41.344,49.142 41.656,48.82 41.91,48.44 L44.84,44 C44.948,43.82 45.004,43.642 45.004,43.44 L45.004,3.5 C45.004,2.96 44.558,2.5 44.004,2.5" id="Fill-6507"></path>
        </g>
    </g>
</svg>