<?xml version="1.0" encoding="UTF-8"?>
<svg width="48px" height="48px" viewBox="0 0 48 48" version="1.1" xmlns="http://www.w3.org/2000/svg" xmlns:xlink="http://www.w3.org/1999/xlink">
    <!-- Generator: Sketch 46.2 (44496) - http://www.bohemiancoding.com/sketch -->
    <title>fish</title>
    <desc>Created with Sketch.</desc>
    <defs></defs>
    <g id="Page-1" stroke="none" stroke-width="1" fill="none" fill-rule="evenodd">
        <g id="fish" stroke="#FFFFFF">
            <path d="M34.3363659,18.998317 C34.3363659,18.998317 38.9915163,21.2385088 40.8662868,23.0497278 C42.7410573,24.8609467 42.9793756,26.1002018 43.201806,26.7992687 C43.4083485,27.4983357 43.8055457,27.8955329 43.8373214,28.1974027 C43.8690972,28.4992725 43.8373214,28.6740392 43.8373214,28.6740392 C43.8373214,28.6740392 44.5681642,29.8497428 42.9317119,30.9460069 C41.2952597,32.042271 40.6120807,31.6450738 39.1662831,32.3918045 C37.7204855,33.154423 33.8915051,33.5039564 33.8915051,33.5039564 C33.8915051,33.5039564 34.3522538,35.4105027 33.5260837,36.4908789 C32.7158016,37.587143 32.3186044,37.4282642 32.1120619,37.1899459 C31.9055194,36.9516276 30.8092553,35.6805968 30.8092553,35.6805968 C30.8092553,35.6805968 28.6643907,37.3488247 27.8699965,37.5553673 C27.0914901,37.7619098 26.5989656,37.2852732 26.5989656,37.2852732 C26.5989656,37.2852732 25.9316744,37.1581701 25.5980288,36.3796637 C25.2643832,35.6011573 25.8045713,33.7740505 26.1699927,33.2338624 C26.5354141,32.6936743 27.0120506,32.2647014 27.0120506,32.2647014 L24.8989619,31.5656344 C24.8989619,31.5656344 22.8970883,33.0432078 19.9101658,33.1385351 C16.9232433,33.2338624 15.0643607,31.6291859 14.4923969,30.5964734 C13.920433,29.5637608 15.9381944,27.879645 15.9381944,27.879645 C15.9381944,27.879645 14.9690334,27.2759053 13.4279085,27.6095509 C11.8867836,27.9431965 8.31200938,29.6114245 6.10359329,27.8160934 C3.8951772,26.0366502 3.46620429,22.1282304 4.62601994,20.380563 C5.78583558,18.6328956 8.01013955,18.3786894 9.80547062,18.9824291 C11.5849138,19.5861687 12.8877204,20.7618722 14.0634239,21.2861725 C15.2391275,21.8104727 16.1447369,21.6515938 16.1447369,21.6515938 C16.1447369,21.6515938 14.2381907,17.2347617 17.0821222,16.3927037 C19.9260537,15.5506458 21.2606361,16.3291522 22.1980213,16.9964434 C23.1354066,17.6637346 23.7391462,17.9973802 24.9466255,17.8067255 C26.1541048,17.6319588 27.5522388,15.6936368 29.2045789,14.6291484 C30.8728068,13.5646601 33.5578595,13.9618572 34.1298234,14.9945698 C34.733563,16.0431702 34.3363659,18.998317 34.3363659,18.998317 Z" id="Shape" fill-rule="nonzero"></path>
            <circle id="Oval" cx="37.5" cy="25.5" r="1.5"></circle>
        </g>
    </g>
</svg>