<?xml version="1.0" encoding="UTF-8"?>
<svg width="12px" height="12px" viewBox="0 0 12 12" version="1.1" xmlns="http://www.w3.org/2000/svg" xmlns:xlink="http://www.w3.org/1999/xlink">
    <!-- Generator: Sketch 46.2 (44496) - http://www.bohemiancoding.com/sketch -->
    <title>forward</title>
    <desc>Created with Sketch.</desc>
    <defs></defs>
    <g id="Page-1" stroke="none" stroke-width="1" fill="none" fill-rule="evenodd">
        <g id="forward" fill-rule="nonzero" fill="#9B9B9B">
            <path d="M6.81340537,4.33431913 C6.64854217,4.33431913 6.50589458,4.33841148 6.39013957,4.34484232 L6.39013957,2.32088346 C6.39013957,2.20805156 6.32524661,2.10515821 6.22235326,2.05663465 C6.12062916,2.00811108 5.99961256,2.02331123 5.91191937,2.09521965 L0.942638528,6.18756858 C0.875407082,6.2431076 0.836237456,6.32612382 0.836237456,6.41323239 C0.836237456,6.50034096 0.875407082,6.58335718 0.942638528,6.63948082 L5.91191937,10.7318297 C5.99902794,10.8037382 6.12062916,10.8189383 6.22235326,10.7698301 C6.32524661,10.7218912 6.39013957,10.6184132 6.39013957,10.5055813 L6.39013957,8.39626775 C6.68595793,8.33079017 7.27233307,8.22555834 7.99667883,8.22555834 C9.61607977,8.22555834 11.8300405,8.74528665 13.1530385,11.2264193 C13.2144237,11.3410051 13.3442096,11.4070673 13.476334,11.3737439 C13.6090431,11.3404205 13.6914747,11.2217424 13.6926439,11.0913718 C13.6926439,4.8224779 8.42812933,4.33431913 6.81340537,4.33431913 Z" id="Shape" transform="translate(7.264441, 6.705452) rotate(120.000000) translate(-7.264441, -6.705452) "></path>
        </g>
    </g>
</svg>