<?xml version="1.0" encoding="UTF-8"?>
<svg width="54px" height="54px" viewBox="0 0 54 54" version="1.1" xmlns="http://www.w3.org/2000/svg" xmlns:xlink="http://www.w3.org/1999/xlink">
    <!-- Generator: Sketch 46.2 (44496) - http://www.bohemiancoding.com/sketch -->
    <title>home_active</title>
    <desc>Created with Sketch.</desc>
    <defs></defs>
    <g id="home" stroke="none" stroke-width="1" fill="none" fill-rule="evenodd">
        <g id="home_active" fill="#3EC6FF">
            <path d="M46.0412461,50 L32.0412461,50 C31.4892461,50 31.0412461,49.56 31.0412461,49 L31.0412461,36 L23.0412461,36 L23.0412461,49 C23.0412461,49.56 22.5952461,50 22.0412461,50 L8.04124612,50 C7.48924612,50 7.04124612,49.56 7.04124612,49 L7.04124612,24 L4.00124612,24 C3.58324612,24 3.21124612,23.74 3.06324612,23.34 C2.91724612,22.96 3.02924612,22.522 3.34524612,22.24 L26.3652461,2.24 C26.7412461,1.92 27.2992461,1.92 27.6772461,2.24 L33.0412461,6.9 L33.0412461,3 C33.0412461,2.442 33.4892461,2 34.0412461,2 L42.0412461,2 C42.5952461,2 43.0412461,2.442 43.0412461,3 L43.0412461,15.542 L50.6612461,22.24 C50.9732461,22.522 51.0832461,22.96 50.9352461,23.362 C50.7892461,23.74 50.4172461,24 50.0012461,24 L47.0412461,24 L47.0412461,49 C47.0412461,49.56 46.5952461,50 46.0412461,50" id="Fill-1734"></path>
        </g>
    </g>
</svg>