<?xml version="1.0" encoding="UTF-8"?>
<svg width="48px" height="48px" viewBox="0 0 48 48" version="1.1" xmlns="http://www.w3.org/2000/svg" xmlns:xlink="http://www.w3.org/1999/xlink">
    <!-- Generator: Sketch 46.2 (44496) - http://www.bohemiancoding.com/sketch -->
    <title>lps_active</title>
    <desc>Created with Sketch.</desc>
    <defs></defs>
    <g id="Page-1" stroke="none" stroke-width="1" fill="none" fill-rule="evenodd">
        <g id="lps_active" fill-rule="nonzero" fill="#FF5000">
            <path d="M34.6113189,17.3010235 C34.6113189,17.3010235 38.5062139,17.2221547 39.1355935,15.019169 C39.1355935,15.019169 35.9885384,16.1599391 33.7065268,15.7274174 C33.7065268,15.7274174 36.4997719,15.019169 36.420903,12.4226247 C36.420903,12.4226247 35.6339429,14.4290667 33.745647,14.7831909 C33.745647,14.7831909 34.2179174,13.7211325 34.060651,12.1079349 C34.060651,12.1079349 33.509826,14.5079355 32.172198,15.1765924 C32.172198,15.1765924 31.4639496,14.6650448 32.5261651,13.6028292 C33.5885378,12.5406137 33.942662,10.1800475 33.942662,10.1800475 C33.942662,10.1800475 33.5489462,12.3830331 32.2505955,12.7765918 C30.9522448,13.1699933 30.9918364,14.4290667 30.9918364,14.4290667 C30.9918364,14.4290667 30.4799745,13.6028292 31.3850808,12.6586027 C32.2901871,11.7143762 31.8966284,10.4947373 31.8966284,10.4947373 C31.8966284,10.4947373 31.7657564,11.7929309 30.8477672,12.3047927 C30.8477672,12.3047927 30.8738473,11.1245882 29.4180732,9.9835038 C29.4180732,9.9835038 30.5197231,11.7146905 29.6934856,13.3668512 C28.8672482,15.0193261 28.7883793,16.6323666 28.7883793,16.6323666 C28.7883793,16.6323666 28.2769888,15.6092713 28.7883793,14.4292238 C29.299927,13.2490192 28.8672482,11.7541249 28.8672482,11.7541249 C28.8672482,11.7541249 28.5525584,12.973921 28.2771459,13.4064427 C28.2771459,13.4064427 27.9230217,11.3607233 28.6312701,9.98366091 C28.6312701,9.98366091 27.5688975,11.2820116 27.4509084,12.8163404 C27.3329194,14.3506692 27.2540506,15.9241182 27.2540506,15.9241182 C27.2540506,15.9241182 26.1129662,14.8619026 26.6639483,13.2884537 C27.2149304,11.7146905 27.7261638,10.4953657 27.293485,9.51170478 C27.293485,9.51170478 26.6711753,12.2656725 26.2150872,12.5802052 C26.2150872,12.5802052 25.0119447,11.6755703 24.9725103,10.5737632 C24.9330759,9.47211325 24.9725103,9 24.9725103,9 C24.9725103,9 23.8628478,10.2375494 24.294741,11.7849183 C24.103382,11.2315796 23.8314259,10.888453 23.8314259,10.888453 C23.8314259,10.888453 23.9230206,12.1533394 23.5619836,13.4697577 C23.194348,13.0263954 22.9007108,12.528045 22.8480792,12.0292231 C22.6906558,10.5343288 22.493955,9.66897112 22.493955,9.66897112 C22.493955,9.66897112 21.6680318,11.2427343 22.2185425,12.658917 C22.4147719,13.1635518 22.87086,13.6234105 23.3552278,14.0914389 C23.2774587,14.2871971 23.1882207,14.4799701 23.0840573,14.6652019 C22.1792652,16.2782424 23.0840573,17.5371587 23.0840573,17.5371587 C22.0216846,17.0259252 21.7069948,15.4914393 21.5890058,13.5242746 C21.4708597,11.557267 20.5266332,9.9835038 20.5266332,9.9835038 C20.5266332,9.9835038 21.1167355,11.1638655 20.723491,12.8553035 C20.3300895,14.5468986 21.0776153,16.4353516 21.0776153,16.4353516 C21.0776153,16.4353516 20.7627683,16.2780853 20.172509,15.2553042 C19.5824067,14.2323659 19.6612755,13.366694 19.6612755,13.366694 C19.6612755,13.366694 19.1102934,15.1765924 20.0153997,16.7893187 C20.9203489,18.4023592 20.3695239,19.267874 20.3695239,19.267874 C20.3695239,19.267874 18.5594685,17.0648883 18.2450929,16.041793 C17.9304031,15.0186976 18.048235,14.0353509 17.9300889,12.9732925 C17.8120998,11.9109199 17.2219975,11.4388066 17.2219975,11.4388066 C17.2219975,11.4388066 17.5761218,12.9732925 16.9858624,14.9404572 C16.3957601,16.907622 17.9300889,18.7172061 17.9300889,18.7172061 C17.9300889,18.7172061 16.5533406,18.2055013 15.6876688,17.0252968 C14.8219969,15.8449351 15.3337017,13.9962307 15.3337017,13.9962307 C15.3337017,13.9962307 14.5467415,14.8615884 14.5412427,16.4350374 C14.535901,18.0089577 16.356797,20.0937972 16.356797,20.0937972 C14.9797346,19.7792645 14.9404572,18.7561692 13.9962307,17.5368444 C13.0520043,16.3173626 11.793088,16.9467422 11.793088,16.9467422 C11.793088,16.9467422 13.7602527,17.49741 13.7602527,18.5203483 C13.7602527,19.5429723 14.350355,20.0155568 14.350355,20.0155568 C13.3670083,19.8975678 12.5406137,20.7629255 11.2424201,21.5104512 C9.9442265,22.2579769 9,21.825141 9,21.825141 C9,21.825141 9.86551477,23.0055027 11.006442,22.493955 C12.1475264,21.9827215 13.681541,21.5104512 13.681541,21.5104512 C9.94391228,23.6347251 10.8097413,26.7035398 10.8097413,26.7035398 C10.9280445,24.8543641 12.5802052,23.3593127 12.5802052,23.3593127 C11.7148476,25.169211 13.435665,27.9624561 13.435665,27.9624561 C12.4421062,26.1919921 13.4849973,23.6348823 13.4849973,23.6348823 C13.1054214,25.5326047 15.013513,26.768583 15.7764355,27.1803663 C15.7808345,27.1828801 15.7860191,27.1855509 15.7902611,27.1880647 C15.791518,27.1886931 15.7927748,27.1893216 15.7940317,27.1901071 C15.8147701,27.2012619 15.8336232,27.2111597 15.8524763,27.2209005 C15.8535761,27.2213718 15.8546759,27.2221574 15.8557756,27.2226287 C15.8557756,27.2226287 15.8559328,27.2227858 15.8560899,27.2227858 L15.8560899,27.2227858 C15.9954458,27.2952132 16.0815416,27.3330765 16.0815416,27.3330765 C16.0617458,27.3167372 16.0430498,27.3003978 16.0237254,27.2840584 C15.9769069,27.244624 15.9315023,27.2053467 15.8875117,27.1663836 C15.8873546,27.1662265 15.8871975,27.1660694 15.8870404,27.1659123 C14.3420282,25.7954484 14.5506692,24.7123374 15.053733,24.0135155 C16.0114709,24.7550711 18.6025164,26.9550717 18.4421079,28.9459599 C18.2454071,31.3850808 16.120976,37.4047211 20.015871,39.1354364 C23.9104519,40.866623 26.1137517,39.528995 30.7560154,39.1354364 C35.3981219,38.7420349 38.7814693,36.7750273 37.6798193,33.5487891 C36.5781694,30.3228652 32.9590011,26.7429742 33.3524026,23.5167361 C33.3671709,23.3959191 33.386024,23.2795012 33.4069195,23.1654399 C33.4132039,23.1310329 33.4202738,23.0977258 33.4270295,23.0639473 C33.4433688,22.9820934 33.4611222,22.9021248 33.4802895,22.8238844 C33.4883021,22.7908914 33.4961575,22.7575843 33.5046414,22.7253769 C33.5294647,22.6304829 33.5560162,22.5376314 33.58461,22.4472936 C33.5877522,22.4375528 33.590266,22.4273407 33.5934082,22.417757 C33.6249871,22.3194066 33.6589227,22.2246698 33.6939581,22.1319753 C33.7055842,22.1010248 33.7176816,22.0710169 33.7299361,22.040852 C33.7547593,21.9776941 33.7803681,21.9154788 33.8066054,21.8548346 C33.8201168,21.8234128 33.8337853,21.7919909 33.8476109,21.7610404 C33.8768332,21.6964685 33.9063698,21.6334677 33.9363776,21.5718809 C33.9465897,21.5509854 33.9564876,21.5293043 33.9666997,21.508723 C34.0047201,21.4326821 34.043369,21.3593121 34.082175,21.2875132 C34.1011852,21.2521636 34.1205096,21.2179138 34.139677,21.1835069 C34.1608867,21.1454864 34.1822536,21.1076231 34.2034633,21.0705453 C34.2259299,21.0315822 34.2482394,20.9929334 34.270549,20.9553843 C34.2839032,20.9327605 34.2971004,20.9112366 34.3102976,20.8892413 C34.536692,20.5128076 34.7508319,20.1985891 34.890502,19.9263188 C35.2777763,20.1641822 35.595294,20.5057376 35.7126546,20.9989035 C36.105899,22.6513784 35.7126546,23.280758 35.7126546,23.280758 C35.7126546,23.280758 36.853739,22.4543635 36.4996148,21.1168926 C36.1454906,19.7794217 35.5159539,18.5597827 35.5159539,18.5597827 C35.5159539,18.5597827 36.302914,18.7173632 37.4438413,18.0876694 C38.5846114,17.4581327 39.1355935,16.8289102 39.1355935,16.8289102 C39.1355935,16.8289102 36.7751844,17.9699946 34.6113189,17.3010235 Z M24.3825651,13.6028292 C24.5423452,12.9806767 24.4806013,12.4186969 24.3524001,11.9681076 C24.3525572,11.9687361 24.3527143,11.9693645 24.3530286,11.9701501 C24.9333901,13.6029863 25.3267916,15.019169 25.3267916,15.019169 C25.3267916,15.019169 24.7987475,14.6785562 24.2293836,14.160567 C24.2790301,13.9893179 24.3307191,13.8051859 24.3825651,13.6028292 Z M24.0476082,14.7781634 C24.6549925,15.4259248 25.1170508,16.1335448 24.8939557,17.025611 C24.844152,17.2246684 24.7982761,17.4175985 24.7545998,17.6061296 L24.7545998,17.6061296 C24.7500436,17.6267109 24.7447019,17.6477636 24.7401457,17.6681878 C24.7300907,17.6504344 24.7192502,17.6315813 24.7091952,17.6133566 L24.7091952,17.6133566 C24.5308762,17.2983526 24.3346468,16.9545976 24.146587,16.6320524 C23.7651258,15.9780066 23.8367676,15.5121777 24.0476082,14.7781634 Z" id="Shape"></path>
        </g>
    </g>
</svg>