<?xml version="1.0" encoding="UTF-8"?>
<svg width="54px" height="54px" viewBox="0 0 54 54" version="1.1" xmlns="http://www.w3.org/2000/svg" xmlns:xlink="http://www.w3.org/1999/xlink">
    <!-- Generator: Sketch 46.2 (44496) - http://www.bohemiancoding.com/sketch -->
    <title>personal_active</title>
    <desc>Created with Sketch.</desc>
    <defs></defs>
    <g id="home" stroke="none" stroke-width="1" fill="none" fill-rule="evenodd">
        <g id="personal_active" fill="#3EC6FF">
            <g id="Fill-5103" transform="translate(3.000000, 5.000000)">
                <path d="M24.016,0.5 C10.784,0.5 0.016,11.282 0.016,24.5 C0.016,32.022 3.498,38.74 8.926,43.14 C9.406,42.74 9.93,42.34 10.59,41.9 C11.914,40.98 13.648,40.5 15.808,40.5 L17.536,40.5 L19.59,37.662 C17.012,35.542 15.208,31.84 15.132,28.56 C13.028,23.56 14.446,19.06 14.81,18.06 C14.848,15.042 15.85,12.28 22.234,12.202 C26.304,9.782 30.48,10.282 32.476,13.18 C33.512,14.68 33.792,16.56 33.252,18.28 C33.692,19.92 35.182,26.202 32.876,28.78 C32.728,31.98 30.964,35.542 28.468,37.64 L30.596,40.5 L32.328,40.5 C34.458,40.5 36.166,40.98 37.468,41.88 C38.046,42.202 38.534,42.702 38.946,43.26 C44.464,38.86 48.016,32.102 48.016,24.5 C48.016,11.282 37.25,0.5 24.016,0.5"></path>
            </g>
        </g>
    </g>
</svg>