<?xml version="1.0" encoding="UTF-8"?>
<svg width="24px" height="24px" viewBox="0 0 24 24" version="1.1" xmlns="http://www.w3.org/2000/svg" xmlns:xlink="http://www.w3.org/1999/xlink">
    <!-- Generator: Sketch 46.2 (44496) - http://www.bohemiancoding.com/sketch -->
    <title>Icon</title>
    <desc>Created with Sketch.</desc>
    <defs></defs>
    <g id="Page-1" stroke="none" stroke-width="1" fill="none" fill-rule="evenodd">
        <g id="我的" transform="translate(-35.000000, -414.000000)">
            <g id="list1-copy-2" transform="translate(30.000000, 414.000000)">
                <g id="Icon" transform="translate(5.000000, 0.000000)">
                    <circle id="Base" fill="#50E3C2" cx="12" cy="12" r="12"></circle>
                    <g id="Icons/bubble-chat" transform="translate(6.000000, 6.000000)">
                        <g id="Filled_Icons_1_" fill-rule="nonzero" fill="#FFFFFF">
                            <g id="Filled_Icons">
                                <path d="M6.4985,0.4515 C3.19,0.4515 0.4985,2.6685 0.4985,5.393 C0.4985,6.6795 1.087,7.8855 2.161,8.8085 L0.956,11.214 C0.8495,11.426 1.074,11.6525 1.285,11.5525 L4.5035,10.055 C5.1425,10.24 5.813,10.334 6.4985,10.334 C9.807,10.334 12.4985,8.1175 12.4985,5.393 C12.4985,2.6685 9.8065,0.4515 6.4985,0.4515 Z M4.25,4 L7.5,4 C7.638,4 7.75,4.112 7.75,4.25 C7.75,4.388 7.638,4.5 7.5,4.5 L4.25,4.5 C4.112,4.5 4,4.388 4,4.25 C4,4.112 4.112,4 4.25,4 Z M9,7.5 L4.25,7.5 C4.112,7.5 4,7.388 4,7.25 C4,7.112 4.112,7 4.25,7 L9,7 C9.138,7 9.25,7.112 9.25,7.25 C9.25,7.388 9.138,7.5 9,7.5 Z M9,6 L4.25,6 C4.112,6 4,5.888 4,5.75 C4,5.612 4.112,5.5 4.25,5.5 L9,5.5 C9.138,5.5 9.25,5.612 9.25,5.75 C9.25,5.888 9.138,6 9,6 Z" id="Shape"></path>
                            </g>
                        </g>
                        <g id="Invisible_Shape" transform="translate(0.500000, 0.000000)">
                            <rect id="Rectangle-path" x="0" y="0" width="12" height="12"></rect>
                        </g>
                    </g>
                </g>
            </g>
        </g>
    </g>
</svg>