<?xml version="1.0" encoding="UTF-8"?>
<svg width="24px" height="24px" viewBox="0 0 24 24" version="1.1" xmlns="http://www.w3.org/2000/svg" xmlns:xlink="http://www.w3.org/1999/xlink">
    <!-- Generator: Sketch 46.2 (44496) - http://www.bohemiancoding.com/sketch -->
    <title>Icon</title>
    <desc>Created with Sketch.</desc>
    <defs></defs>
    <g id="Page-1" stroke="none" stroke-width="1" fill="none" fill-rule="evenodd">
        <g id="我的" transform="translate(-35.000000, -457.000000)">
            <g id="list1-copy-3" transform="translate(30.000000, 457.000000)">
                <g id="Icon" transform="translate(5.000000, 0.000000)">
                    <circle id="Base" fill="#7EB6F8" cx="12" cy="12" r="12"></circle>
                    <g id="Fill-6605-+-Fill-6606-+-Fill-6607" transform="translate(6.000000, 6.000000)" fill="#FFFFFF">
                        <path d="M5.74017391,7.92521739 C4.75252174,7.92521739 3.94904348,7.12226087 3.94904348,6.13043478 C3.94904348,5.14434783 4.75252174,4.3413913 5.74017391,4.3413913 C6.72834783,4.3413913 7.53182609,5.14434783 7.53182609,6.13043478 C7.53182609,7.12226087 6.72834783,7.92521739 5.74017391,7.92521739 L5.74017391,7.92521739 Z M5.74017391,3.26086957 C4.15826087,3.26086957 2.8706087,4.54956522 2.8706087,6.13043478 C2.8706087,7.71130435 4.15826087,9 5.74017391,9 C7.3226087,9 8.60973913,7.71130435 8.60973913,6.13043478 C8.60973913,4.54956522 7.3226087,3.26086957 5.74017391,3.26086957 L5.74017391,3.26086957 Z" id="Fill-6605"></path>
                        <path d="M5.74017391,4.8626087 C5.04,4.8626087 4.47078261,5.43130435 4.47078261,6.13043478 C4.47078261,6.83008696 5.04,7.404 5.74017391,7.404 C6.44034783,7.404 7.01008696,6.83008696 7.01008696,6.13043478 C7.01008696,5.43130435 6.44034783,4.8626087 5.74017391,4.8626087" id="Fill-6606"></path>
                        <path d="M5.74017391,9.52173913 C3.87026087,9.52173913 2.34886957,8.004 2.34886957,6.13043478 C2.34886957,4.2626087 3.87026087,2.73913043 5.74017391,2.73913043 C7.61008696,2.73913043 9.13147826,4.2626087 9.13147826,6.13043478 C9.13147826,8.004 7.61008696,9.52173913 5.74017391,9.52173913 L5.74017391,9.52173913 Z M11.7401739,6.13043478 C11.7401739,5.36869565 11.133913,4.74834783 10.3794783,4.72173913 C10.2871304,4.41913043 10.1655652,4.12695652 10.0158261,3.84521739 C10.2610435,3.58434783 10.3951304,3.24521739 10.3951304,2.88573913 C10.3951304,2.50956522 10.2490435,2.15478261 9.98347826,1.88869565 C9.46226087,1.36747826 8.55756522,1.35652174 8.0253913,1.8573913 C7.74573913,1.70608696 7.452,1.58608696 7.14834783,1.49269565 C7.12330435,0.735652174 6.5013913,0.130434783 5.74017391,0.130434783 C4.97947826,0.130434783 4.35756522,0.735652174 4.33252174,1.49269565 C4.02834783,1.58608696 3.7346087,1.70608696 3.45547826,1.8573913 C2.92069565,1.35652174 2.01756522,1.36747826 1.49791304,1.88869565 C1.23182609,2.15478261 1.08521739,2.50956522 1.08521739,2.88573913 C1.08521739,3.24521739 1.21930435,3.58434783 1.46504348,3.84521739 C1.31530435,4.12695652 1.19321739,4.41913043 1.1013913,4.72173913 C0.346434783,4.74834783 -0.259826087,5.36869565 -0.259826087,6.13043478 C-0.259826087,6.89217391 0.346434783,7.51356522 1.1013913,7.53913043 C1.19321739,7.84226087 1.31530435,8.13391304 1.46452174,8.41565217 C1.21930435,8.67704348 1.08521739,9.01617391 1.08521739,9.37565217 C1.08521739,9.75652174 1.23182609,10.106087 1.49791304,10.3721739 C2.0186087,10.8944348 2.92226087,10.9095652 3.45547826,10.4086957 C3.7346087,10.5547826 4.02834783,10.68 4.33252174,10.7686957 C4.35756522,11.5257391 4.97947826,12.1304348 5.74017391,12.1304348 C6.5013913,12.1304348 7.12330435,11.5257391 7.14834783,10.7686957 C7.452,10.68 7.74573913,10.5547826 8.02486957,10.4086957 C8.56017391,10.9095652 9.46278261,10.8944348 9.98243478,10.3721739 C10.2490435,10.106087 10.3951304,9.75652174 10.3951304,9.37565217 C10.3951304,9.01617391 10.2610435,8.67704348 10.0158261,8.41565217 C10.1655652,8.13391304 10.2871304,7.84226087 10.3789565,7.53913043 C11.133913,7.51356522 11.7401739,6.89217391 11.7401739,6.13043478 L11.7401739,6.13043478 Z" id="Fill-6607"></path>
                    </g>
                </g>
            </g>
        </g>
    </g>
</svg>