<?xml version="1.0" encoding="UTF-8"?>
<svg width="24px" height="24px" viewBox="0 0 24 24" version="1.1" xmlns="http://www.w3.org/2000/svg" xmlns:xlink="http://www.w3.org/1999/xlink">
    <!-- Generator: Sketch 46.2 (44496) - http://www.bohemiancoding.com/sketch -->
    <title>tuan</title>
    <desc>Created with Sketch.</desc>
    <defs></defs>
    <g id="Page-1" stroke="none" stroke-width="1" fill="none" fill-rule="evenodd">
        <g id="我的" transform="translate(-35.000000, -328.000000)">
            <g id="list1" transform="translate(30.000000, 328.000000)">
                <g id="tuan" transform="translate(5.000000, 0.000000)">
                    <circle id="Base" fill="#FA9D4C" cx="12" cy="12" r="12"></circle>
                    <path d="M17.51136,16.56368 L15.11136,9.36368 C15.07872,9.2672 14.98752,9.2 14.88384,9.2 L14.16384,9.2 L14.16384,10.64 C14.16384,10.77488 14.0568,10.88 13.92384,10.88 C13.79136,10.88 13.68384,10.77488 13.68384,10.64 L13.68384,9.2 L9.84384,9.2 L9.84384,10.64 C9.84384,10.77488 9.7368,10.88 9.60384,10.88 C9.47136,10.88 9.36384,10.77488 9.36384,10.64 L9.36384,9.2 L8.64384,9.2 C8.54064,9.2 8.44896,9.2672 8.41632,9.36368 L6.01632,16.56368 C5.99136,16.64 6.00432,16.7168 6.04944,16.78448 C6.09456,16.8464 6.16704,16.88 6.24384,16.88 L17.28384,16.88 C17.36112,16.88 17.4336,16.8464 17.47872,16.78448 C17.52384,16.7168 17.53584,16.64 17.51136,16.56368" id="Fill-4319" fill="#FFFFFF"></path>
                    <g id="Fill-2183-+-Fill-2184" transform="translate(8.400000, 11.240000)" fill="#FA9D4C">
                        <path d="M5.76015479,2.4 C5.49546598,2.4 5.28,2.18462128 5.28,1.92046021 C5.28,1.65568552 5.49546598,1.44 5.76015479,1.44 C6.02453402,1.44 6.24,1.65568552 6.24,1.92046021 C6.24,2.18462128 6.02453402,2.4 5.76015479,2.4 L5.76015479,2.4 Z M7.1762833,2.40369701 C6.49138638,1.33269998 5.60969034,0.848848529 4.55609507,0.848848529 L4.54439512,0.848848529 L3.98669763,0.107969875 C3.94499782,0.056926869 3.87419813,-0.0203927134 3.81359841,0.0049777746 L2.17920575,0.68998095 C2.13450595,0.708706786 2.1015061,0.747668607 2.09070614,0.795389287 C2.07960619,0.842505907 2.09190614,0.892340794 2.123706,0.929188408 L2.4564045,1.31185993 C2.10780607,1.54895319 1.70370788,1.86668834 1.48860885,2.03944929 C1.19371017,1.41303986 0.861611665,1.09590876 0.500113288,1.09590876 C0.226514517,1.09590876 0.0561152823,1.28135494 0.0378153644,1.30189296 C-0.00748443211,1.35323799 -0.0125844092,1.4287454 0.025215421,1.48582899 C0.779712032,2.62568878 0.328814058,3.66527472 0.309314145,3.70937105 C0.288614238,3.75497752 0.292214222,3.80934285 0.318914102,3.851627 C0.345313983,3.89421317 0.391513776,3.92139584 0.441613551,3.92260396 L0.495913307,3.92351005 C0.854411697,3.92351005 1.13551043,3.82021592 1.33200955,3.61664795 C1.48110888,3.46261285 1.54920858,3.28139508 1.58040844,3.14185739 C2.26890534,3.43059771 2.97540217,3.61846013 3.68639898,3.70182031 L3.4811999,4.37021185 C3.45690001,4.44904158 3.50009981,4.53300582 3.57809946,4.55867833 L4.29269625,4.79275129 C4.30799619,4.79758376 4.32389611,4.8 4.33919605,4.8 C4.3931958,4.8 4.44479557,4.7704011 4.47119545,4.72026418 L4.99319311,3.74168822 C5.02559296,3.7404801 5.05769282,3.73957401 5.08709269,3.7374598 C6.36178696,3.65651586 6.9548843,3.11739299 6.97978419,3.09443874 C7.01038405,3.06604796 7.02778397,3.02738817 7.02778397,2.98510402 C7.02748397,2.9431219 7.01008405,2.90627429 6.97888419,2.87818554 L6.87988464,2.79361724 L7.14928343,2.56890721 C7.20478318,2.51937435 7.21618313,2.46651917 7.1762833,2.40369701 L7.1762833,2.40369701 Z" id="Fill-2184"></path>
                    </g>
                    <path d="M9.84384,7.28 C9.84384,6.2864 10.68768,5.84 11.52384,5.84 L12.00384,5.84 C12.84,5.84 13.68384,6.2864 13.68384,7.28 L13.68384,8.72 L14.16384,8.72 L14.16384,7.28 C14.16384,6.152 13.27584,5.36 12.00384,5.36 L11.52384,5.36 C10.25232,5.36 9.36384,6.152 9.36384,7.28 L9.36384,8.72 L9.84384,8.72 L9.84384,7.28" id="Fill-4320" fill="#FFFFFF"></path>
                </g>
            </g>
        </g>
    </g>
</svg>