<?xml version="1.0" encoding="UTF-8"?>
<svg width="24px" height="24px" viewBox="0 0 24 24" version="1.1" xmlns="http://www.w3.org/2000/svg" xmlns:xlink="http://www.w3.org/1999/xlink">
    <!-- Generator: Sketch 46.2 (44496) - http://www.bohemiancoding.com/sketch -->
    <title>Icon</title>
    <desc>Created with Sketch.</desc>
    <defs></defs>
    <g id="Page-1" stroke="none" stroke-width="1" fill="none" fill-rule="evenodd">
        <g id="我的" transform="translate(-35.000000, -500.000000)">
            <g id="list1-copy-4" transform="translate(30.000000, 500.000000)">
                <g id="Icon" transform="translate(5.000000, 0.000000)">
                    <circle id="Base" fill="#D377E6" cx="12" cy="12" r="12"></circle>
                    <g id="Fill-6591-+-Fill-6592" transform="translate(6.000000, 6.000000)" fill="#FFFFFF">
                        <path d="M0.0265,10.385 C0.1425,10.9505 0.6425,11.375 1.2405,11.375 C1.9455,11.375 2.501,10.8205 2.501,10.135 L2.501,4.625 C2.501,3.6605 3.286,2.875 4.251,2.875 L10.751,2.875 C11.241,2.875 11.6835,3.08 12.001,3.405 L12.001,3.375 C12.001,2.275 11.1035,1.375 10.001,1.375 L6.0295,1.375 C5.8645,0.725 5.119,-0.125 4.282,-0.125 L1.782,-0.125 C0.8505,-0.125 0.001,0.7855 0.001,1.78 L0.001,10.135 C0.001,10.22 0.0145,10.3055 0.0265,10.385" id="Fill-6591"></path>
                        <path d="M10.198,5.6 L9.9765,5.82 L8.8545,4.7 L9.076,4.475 C9.2735,4.28 9.532,4.165 9.784,4.165 L9.785,4.165 C9.9865,4.165 10.17,4.2405 10.3025,4.375 C10.4355,4.505 10.509,4.69 10.509,4.8905 C10.509,5.145 10.3955,5.4005 10.198,5.6 L10.198,5.6 Z M9.328,6.47 L8.206,5.35 L8.501,5.0555 L9.623,6.175 L9.328,6.47 L9.328,6.47 Z M7.0235,8.7755 L5.9015,7.6505 L7.8525,5.7005 L8.9745,6.8255 L7.0235,8.7755 L7.0235,8.7755 Z M6.535,9.26 C6.5175,9.28 6.497,9.295 6.4745,9.3055 L4.87,10.145 C4.833,10.1605 4.793,10.1705 4.754,10.1705 C4.6895,10.1705 4.625,10.145 4.577,10.1 C4.5,10.02 4.4815,9.905 4.532,9.805 L5.369,8.2 C5.381,8.1805 5.3955,8.1605 5.414,8.14 L5.548,8.005 L6.67,9.125 L6.535,9.26 L6.535,9.26 Z M10.751,3.375 L4.251,3.375 C3.5615,3.375 3.001,3.9355 3.001,4.625 L3.001,10.135 C3.001,11.01 2.3505,11.7305 1.5095,11.85 C1.5925,11.8655 1.675,11.875 1.7615,11.875 C1.8205,11.875 1.879,11.875 1.9355,11.8655 C1.9565,11.875 1.9785,11.875 2.001,11.875 L10.076,11.875 C11.1375,11.875 12.001,11.0155 12.001,9.95 L12.001,4.625 C12.001,3.9355 11.4405,3.375 10.751,3.375 L10.751,3.375 Z" id="Fill-6592"></path>
                    </g>
                </g>
            </g>
        </g>
    </g>
</svg>