<?xml version="1.0" encoding="UTF-8"?>
<svg width="24px" height="24px" viewBox="0 0 24 24" version="1.1" xmlns="http://www.w3.org/2000/svg" xmlns:xlink="http://www.w3.org/1999/xlink">
    <!-- Generator: Sketch 46.2 (44496) - http://www.bohemiancoding.com/sketch -->
    <title>Icon</title>
    <desc>Created with Sketch.</desc>
    <defs></defs>
    <g id="Page-1" stroke="none" stroke-width="1" fill="none" fill-rule="evenodd">
        <g id="我的" transform="translate(-35.000000, -543.000000)">
            <g id="list1-copy-5" transform="translate(30.000000, 543.000000)">
                <g id="Icon" transform="translate(5.000000, 0.000000)">
                    <circle id="Base" fill="#F85D55" cx="12" cy="12" r="12"></circle>
                    <g id="Group" transform="translate(7.000000, 6.000000)" fill="#FFFFFF">
                        <path d="M8.52756923,9.81312 C7.75772308,9.81312 6.75803077,9.51581538 5.87575385,9.2544 C5.38504615,9.10818462 4.92092308,8.97127385 4.62683077,8.93095385 C4.14498462,8.86006154 3.8664,8.6208 3.86196923,8.27564308 C3.85975385,8.08467692 3.95058462,7.90345846 4.11175385,7.77009231 C4.26849231,7.64603077 4.47673846,7.57558154 4.69883077,7.57558154 L5.30861538,7.59286154 L3.08824615,5.81656615 C2.74375385,5.54141538 2.73267692,5.11606154 3.06166154,4.85464615 C3.38289231,4.59766154 3.92621538,4.60652308 4.25686154,4.87236923 L5.41107692,5.79441231 C5.45150769,5.72750769 5.50578462,5.66547692 5.57390769,5.61230769 C5.80153846,5.43108923 6.1488,5.37348923 6.44455385,5.46210462 C6.48387692,5.36861538 6.54923077,5.28487385 6.64061538,5.21353846 C6.87046154,5.02744615 7.22436923,4.97427692 7.52233846,5.06289231 C7.56110769,4.97427692 7.62646154,4.89053538 7.71729231,4.81964308 C8.03796923,4.56221538 8.58627692,4.57550769 8.91858462,4.84135385 L10.4771077,6.0864 C11.484,6.8928 11.0852308,8.0448 10.7329846,8.53661538 C10.7208,8.55433846 10.7058462,8.57250462 10.6886769,8.58535385 L9.48627692,9.54683077 C9.26695385,9.72450462 8.94406154,9.81312 8.52756923,9.81312" id="Fill-6871"></path>
                        <path d="M5.68467692,9.67089231 C5.31747692,9.56499692 4.95027692,9.45422769 4.69218462,9.40061538 C4.56923077,9.67532308 4.2408,9.87515077 3.85255385,9.87515077 C3.35963077,9.87515077 2.95864615,9.55569231 2.95864615,9.16135385 C2.95864615,8.91323077 3.11870769,8.69169231 3.36073846,8.5632 C3.33083077,8.47502769 3.30978462,8.37710769 3.30812308,8.27963077 C3.30812308,8.24019692 3.31643077,8.19987692 3.32086154,8.16 L1.38572308,8.16 C1.23341538,8.16 1.1088,8.06296615 1.1088,7.93846154 L1.1088,1.73538462 C1.1088,1.61575385 1.23341538,1.51384615 1.38572308,1.51384615 L6.37033846,1.51384615 C6.52375385,1.51384615 6.64726154,1.61575385 6.64726154,1.73538462 L6.64726154,4.70887385 C6.82726154,4.65127385 7.02387692,4.61538462 7.22492308,4.61538462 L7.24209231,4.61538462 C7.26812308,4.61538462 7.29636923,4.54892308 7.32572308,4.52721231 C7.44978462,4.42486154 7.596,4.34555077 7.75495385,4.29193846 L7.75495385,0.849230769 C7.75495385,0.7296 7.63144615,0.627692308 7.47803077,0.627692308 L0.278030769,0.627692308 C0.125723077,0.627692308 0.00110769231,0.7296 0.00110769231,0.849230769 L0.00110769231,10.5969231 C0.00110769231,10.7214277 0.125723077,10.8184615 0.278030769,10.8184615 L7.47803077,10.8184615 C7.63144615,10.8184615 7.75495385,10.7214277 7.75495385,10.5969231 L7.75495385,10.1848615 C7.07538462,10.0833969 6.34873846,9.86584615 5.68467692,9.67089231" id="Fill-6872"></path>
                        <path d="M6.09341538,4.98756923 L6.09341538,1.95692308 L1.66264615,1.95692308 L1.66264615,7.71692308 L3.48867692,7.71692308 C3.55126154,7.62387692 3.62436923,7.53526154 3.71796923,7.46038154 C3.82818462,7.37132308 3.95501538,7.30043077 4.09126154,7.24327385 L2.69667692,6.13115077 C2.13286154,5.67921231 2.12123077,4.97915077 2.67009231,4.54006154 C2.92596923,4.33624615 3.27101538,4.22592 3.64043077,4.22592 C4.01649231,4.22592 4.38369231,4.34555077 4.64843077,4.55822769 L5.39889231,5.15593846 C5.60436923,5.0496 5.84584615,4.99643077 6.09341538,4.98756923" id="Fill-6873"></path>
                        <path d="M3.85255385,9.43163077 C3.98824615,9.43163077 4.104,9.3696 4.15827692,9.27655385 C3.93895385,9.20123077 3.75563077,9.09932308 3.61661538,8.96684308 C3.55236923,9.01513846 3.51249231,9.08647385 3.51249231,9.16135385 C3.51249231,9.312 3.6648,9.43163077 3.85255385,9.43163077" id="Fill-6874"></path>
                    </g>
                </g>
            </g>
        </g>
    </g>
</svg>