<?xml version="1.0" encoding="UTF-8"?>
<svg width="12px" height="12px" viewBox="0 0 12 12" version="1.1" xmlns="http://www.w3.org/2000/svg" xmlns:xlink="http://www.w3.org/1999/xlink">
    <!-- Generator: Sketch 46.2 (44496) - http://www.bohemiancoding.com/sketch -->
    <title>share</title>
    <desc>Created with Sketch.</desc>
    <defs></defs>
    <g id="Page-1" stroke="none" stroke-width="1" fill="none" fill-rule="evenodd">
        <g id="share" fill-rule="nonzero" fill="#F5A623">
            <g id="Shape">
                <path d="M9.75,7.5 C8.9585,7.5 8.2635,7.9095 7.863,8.5275 L4.3605,6.776 C4.546,6.279 4.548,5.727 4.3605,5.224 L7.863,3.473 C8.2635,4.091 8.9585,4.5 9.75,4.5 C10.992,4.5 12,3.4925 12,2.25 C12,1.0075 10.992,0 9.75,0 C8.195,0 7.0965,1.5475 7.6395,3.0255 L4.133,4.779 C3.7205,4.14 3.0215,3.75 2.25,3.75 C1.0095,3.75 0,4.7595 0,6 C0,7.2405 1.0095,8.25 2.25,8.25 C3.0215,8.25 3.7205,7.8605 4.1335,7.221 L7.64,8.9745 C7.097,10.4535 8.195,12 9.75,12 C10.992,12 12,10.9925 12,9.75 C12,8.5075 10.992,7.5 9.75,7.5 Z"></path>
            </g>
        </g>
    </g>
</svg>