<?xml version="1.0" encoding="UTF-8"?>
<svg width="48px" height="48px" viewBox="0 0 48 48" version="1.1" xmlns="http://www.w3.org/2000/svg" xmlns:xlink="http://www.w3.org/1999/xlink">
    <!-- Generator: Sketch 46.2 (44496) - http://www.bohemiancoding.com/sketch -->
    <title>sps</title>
    <desc>Created with Sketch.</desc>
    <defs></defs>
    <g id="Page-1" stroke="none" stroke-width="1" fill="none" fill-rule="evenodd">
        <g id="sps" stroke="#FFFFFF" fill-rule="nonzero">
            <path d="M39.5609679,28.7837838 L39.5421119,28.7837838 C39.5421119,28.7837838 39.5043997,28.8026398 39.4289755,28.8214959 C39.3535512,28.840352 39.2404148,28.8969202 39.0895663,28.9346323 C38.9387178,28.9723444 38.7690132,29.0289126 38.5427404,29.0666248 C38.3353237,29.123193 38.0901948,29.1609051 37.8262099,29.1986172 C37.6942175,29.2174733 37.562225,29.2363294 37.4113765,29.2551854 C37.260528,29.2740415 37.1285355,29.2928975 36.9588309,29.2928975 C36.8079824,29.3117536 36.6571339,29.3117536 36.4874293,29.3306097 C36.3177247,29.3306097 36.1668762,29.3494657 35.9971716,29.3494657 C35.827467,29.3494657 35.6577624,29.3494657 35.4880578,29.3494657 C35.3183532,29.3494657 35.1486486,29.3494657 34.9789441,29.3494657 C35.1486486,29.1797612 35.3183532,28.9912005 35.4880578,28.8026398 C35.8086109,28.4443746 36.1480201,28.1049654 36.393149,27.8409805 C36.6382778,27.5769956 36.8079824,27.407291 36.8079824,27.407291 L36.8079824,27.407291 C36.9211188,27.2941546 36.9211188,27.12445 36.8268385,27.0113136 C36.7137021,26.8793212 36.5439975,26.8793212 36.412005,26.9736015 C36.412005,26.9736015 36.2234444,27.12445 35.9406034,27.3695789 C35.6577624,27.5958517 35.2994972,27.9164048 34.9412319,28.2369579 C34.5829667,28.557511 34.2247014,28.8780641 33.9418605,29.123193 C33.8852923,29.1797612 33.809868,29.2363294 33.7532998,29.2928975 C32.357951,29.1797612 30.9814582,28.9346323 29.9443746,28.7272156 C29.8878064,28.7083595 29.8123821,28.7083595 29.755814,28.6895035 C29.8689503,28.557511 30.0009428,28.4066625 30.1140792,28.27467 C30.3214959,28.0295412 30.5289126,27.8032684 30.7363294,27.5581395 C30.9437461,27.3130107 31.1511628,27.0867379 31.3774356,26.8416091 C31.5848523,26.6153363 31.8111251,26.3702074 32.0185418,26.1439346 C32.1316782,26.0307982 32.2259585,25.9176618 32.3390949,25.8045255 C32.4522313,25.6913891 32.5465116,25.5782527 32.659648,25.4839723 C32.8670647,25.2576996 33.0933375,25.0502828 33.3007542,24.8428661 C33.7155877,24.4280327 34.1492772,24.0320553 34.5641106,23.6737901 C34.7715273,23.4852294 34.9789441,23.3343809 35.1675047,23.1646763 C35.3560654,22.9949717 35.5634821,22.8629793 35.7520427,22.7121307 C35.9406034,22.5801383 36.129164,22.4481458 36.2988686,22.3161534 C36.4685732,22.203017 36.6571339,22.0898806 36.8079824,21.9767442 C36.8834067,21.920176 36.977687,21.8824639 37.0531113,21.8447517 C37.1285355,21.8070396 37.2039598,21.7693275 37.279384,21.7127593 C37.3548083,21.6750471 37.4113765,21.637335 37.4868008,21.5996229 C37.562225,21.5619107 37.6187932,21.5430547 37.6753614,21.5053426 C37.8073539,21.4487744 37.9016342,21.3922062 38.0147706,21.354494 C38.1090509,21.3167819 38.2033312,21.2979258 38.2598994,21.2602137 C38.3918919,21.2036455 38.4673162,21.1847894 38.4673162,21.1847894 L38.4861722,21.1847894 C38.5804525,21.1470773 38.6181647,21.071653 38.6181647,20.9773727 C38.5993086,20.8642363 38.5050283,20.7888121 38.3918919,20.8076681 C38.3918919,20.8076681 38.3164676,20.8265242 38.146763,20.8453803 C38.0713388,20.8642363 37.9770585,20.8642363 37.8639221,20.8830924 C37.7507857,20.9019485 37.6187932,20.9396606 37.4868008,20.9773727 C37.3359522,21.0150849 37.1851037,21.052797 37.0153991,21.1093652 C36.9399749,21.1470773 36.8456945,21.1659334 36.7514142,21.2036455 C36.6571339,21.2413576 36.5628536,21.2602137 36.4685732,21.3167819 C36.2800126,21.3922062 36.0725959,21.4864865 35.8651791,21.5807668 C35.827467,21.5996229 35.8086109,21.6184789 35.7708988,21.637335 C35.7331867,21.5996229 35.7143306,21.5619107 35.6766185,21.5430547 L33.4138906,19.6951603 C33.22533,19.5443118 32.9613451,19.5443118 32.7916405,19.7140163 C32.6030798,19.902577 32.5842238,20.204274 32.7727844,20.3928347 L34.5452546,22.3161534 C34.3189818,22.4670019 34.0738529,22.5989943 33.8475801,22.7498429 C33.3761785,23.070396 32.8859208,23.4098052 32.3956631,23.7869265 C31.9054054,24.1640478 31.3962916,24.5600251 30.9060339,24.9748586 C30.6609051,25.1822753 30.4157762,25.389692 30.1706474,25.6159648 C30.0763671,25.6913891 29.9820867,25.7856694 29.8878064,25.8610937 C29.6992458,25.2199874 29.472973,24.3903206 29.3032684,23.5417976 C29.2655563,23.3155248 29.2278441,23.1081081 29.190132,22.8818353 C29.1524199,22.6744186 29.1335638,22.4481458 29.0958517,22.2407291 C29.0769956,22.0333124 29.0581395,21.8447517 29.0581395,21.6561911 C29.0581395,21.5619107 29.0581395,21.4676304 29.0581395,21.3922062 C29.0581395,21.2979258 29.0581395,21.2225016 29.0581395,21.1470773 C29.0581395,21.1093652 29.0581395,21.071653 29.0581395,21.0339409 C29.0581395,20.9962288 29.0581395,20.9585167 29.0769956,20.9208045 C29.0769956,20.8830924 29.0769956,20.8453803 29.0958517,20.8265242 C29.0958517,20.7888121 29.1147077,20.769956 29.1147077,20.7322439 C29.1147077,20.6945317 29.1335638,20.6756757 29.1335638,20.6379635 C29.1335638,20.6191075 29.1524199,20.5813953 29.1524199,20.5625393 C29.1712759,20.5248272 29.1712759,20.468259 29.190132,20.4305468 C29.2089881,20.3928347 29.2089881,20.3551226 29.2278441,20.3362665 C29.2467002,20.3174104 29.2467002,20.2985544 29.2655563,20.2796983 C29.2844123,20.2419862 29.2844123,20.2231301 29.2844123,20.2231301 L29.3221245,20.1477058 C29.3975487,19.9968573 29.3598366,19.7894406 29.2089881,19.6951603 C29.0392835,19.5820239 28.8130107,19.619736 28.6998743,19.7705845 C28.6998743,19.7705845 28.6810182,19.8082967 28.6433061,19.8648649 C28.62445,19.902577 28.605594,19.9214331 28.5678818,19.9780013 C28.5490258,20.0157134 28.5113136,20.0722816 28.4924576,20.1288498 C28.4547454,20.185418 28.4358894,20.2419862 28.4170333,20.3174104 C28.3981772,20.3551226 28.3981772,20.3928347 28.3793212,20.4305468 C28.3604651,20.468259 28.3604651,20.5059711 28.3416091,20.5436832 C28.322753,20.5813953 28.322753,20.6191075 28.3038969,20.6568196 C28.2850409,20.6945317 28.2850409,20.7322439 28.2661848,20.7888121 C28.2473287,20.8265242 28.2473287,20.8830924 28.2284727,20.9208045 C28.2284727,20.9585167 28.2096166,21.0150849 28.2096166,21.052797 C28.1907605,21.1470773 28.1719045,21.2413576 28.1719045,21.335638 C28.1530484,21.4299183 28.1530484,21.5430547 28.1341923,21.637335 C28.1153363,21.8447517 28.1153363,22.0710245 28.0964802,22.2972973 C28.0964802,22.5235701 28.0964802,22.7498429 28.0964802,22.9949717 C28.1153363,23.2212445 28.1153363,23.4663734 28.1341923,23.6926461 C28.2096166,24.6354494 28.3416091,25.5593966 28.4547454,26.257071 C28.5113136,26.5776241 28.5490258,26.8604651 28.5867379,27.0490258 C28.3981772,27.2375864 28.2096166,27.407291 28.0210559,27.5958517 C27.5685104,28.0483972 27.1159648,28.5009428 26.7011314,28.9534884 C26.2674419,29.4060339 25.8714645,29.8397234 25.4943432,30.2545569 C25.1172219,30.6693903 24.7589566,31.0653677 24.4384035,31.442489 C24.1178504,31.8196103 23.8161534,32.1590195 23.5710245,32.4607165 C23.5521684,32.4795726 23.5333124,32.5172847 23.5144563,32.5361408 C23.0619107,31.9138906 22.5905091,31.2727844 22.1191075,30.6505343 C22.1568196,30.4996857 22.1756757,30.3676933 22.1756757,30.1979887 C22.1756757,30.1979887 22.1756757,30.1791326 22.1756757,30.1414205 C22.1756757,30.1037084 22.1756757,30.0282841 22.1756757,29.9528598 C22.1756757,29.7831552 22.1945317,29.5380264 22.2133878,29.1986172 C22.2322439,28.8780641 22.269956,28.4820867 22.3265242,28.0295412 C22.3830924,27.5769956 22.4773727,27.0678818 22.6093652,26.539912 C22.6470773,26.4079195 22.6847894,26.2759271 22.7225016,26.1250786 C22.7979258,26.1250786 22.854494,26.1250786 22.9299183,26.1250786 C23.0996229,26.1250786 23.2693275,26.1062225 23.4390321,26.0873664 C23.6087366,26.0685104 23.7972973,26.0496543 23.9670019,26.0119422 C24.1367065,25.97423 24.3252671,25.955374 24.4949717,25.9176618 C24.589252,25.8988058 24.6646763,25.8799497 24.7589566,25.8610937 C24.8343809,25.8422376 24.9286612,25.8045255 25.0040855,25.7856694 C25.0795097,25.7668133 25.1737901,25.7291012 25.2492143,25.7102451 C25.3246386,25.672533 25.4000629,25.6536769 25.4754871,25.6159648 C25.6263356,25.5593966 25.7583281,25.5028284 25.8714645,25.4462602 C25.9846009,25.389692 26.0977373,25.3331238 26.2108737,25.2765556 C26.305154,25.2199874 26.3805783,25.1634192 26.4560025,25.1257071 C26.587995,25.0502828 26.6634192,24.9937146 26.6634192,24.9937146 C26.8519799,24.8805783 26.9462602,24.6354494 26.8519799,24.4091766 C26.7576996,24.1829038 26.4748586,24.0697674 26.2485858,24.1640478 L26.2108737,24.1829038 C26.2108737,24.1829038 26.1354494,24.220616 26.022313,24.2583281 C25.9657448,24.2771842 25.8903206,24.3148963 25.7960402,24.3526084 C25.7017599,24.3903206 25.6074796,24.4091766 25.4943432,24.4468887 C25.3812068,24.4846009 25.2680704,24.5034569 25.1360779,24.5411691 C25.0795097,24.5600251 25.0040855,24.5788812 24.9475173,24.5788812 C24.872093,24.5977373 24.8155248,24.5977373 24.7401006,24.6165933 C24.6646763,24.6354494 24.6081081,24.6354494 24.5326838,24.6543055 C24.4572596,24.6543055 24.3818353,24.6731615 24.3064111,24.6731615 C24.1555625,24.6920176 24.004714,24.6920176 23.8538655,24.6920176 C23.703017,24.7108737 23.5521684,24.6920176 23.4013199,24.6920176 C23.3447517,24.6920176 23.2881835,24.6920176 23.2316153,24.6920176 C23.3258957,24.4657448 23.4578881,24.239472 23.5710245,24.0320553 C23.6464488,23.9000629 23.7407291,23.7680704 23.8161534,23.6360779 C23.9292898,23.4852294 24.0424261,23.3343809 24.1367065,23.1835324 C24.1744186,23.1269642 24.2121307,23.070396 24.2498429,23.0138278 L24.3441232,22.8629793 C24.4006914,22.7686989 24.4572596,22.6555625 24.5138278,22.5612822 C24.6269642,22.3538655 24.7212445,22.1653048 24.8155248,21.9578881 C25.0040855,21.5619107 25.154934,21.1470773 25.2869265,20.7510999 C25.5697674,19.9402891 25.7771842,19.1106223 25.9468887,18.2809554 C25.9846009,18.0735387 26.022313,17.884978 26.0600251,17.6775613 C26.1543055,17.6209931 26.2674419,17.5455688 26.3805783,17.4701446 C26.4560025,17.4324324 26.5125707,17.3758642 26.587995,17.3381521 C26.6634192,17.2815839 26.7388435,17.2438718 26.7954117,17.1873036 C26.9462602,17.0741672 27.0971087,16.9610308 27.2479573,16.8290383 C27.3988058,16.6970459 27.5496543,16.5650534 27.7005028,16.4142049 C27.8513514,16.2633564 28.0021999,16.1125079 28.1341923,15.9616593 C28.2096166,15.8862351 28.2661848,15.8108108 28.3416091,15.7165305 C28.3981772,15.6411062 28.4736015,15.5468259 28.5301697,15.4714016 C28.5867379,15.3959774 28.6621622,15.301697 28.7187304,15.2262728 C28.7752986,15.1319925 28.8318668,15.0565682 28.8884349,14.9811439 C28.9450031,14.9057197 29.0015713,14.8114393 29.0392835,14.7360151 C29.0769956,14.6605908 29.1335638,14.5663105 29.1712759,14.4908862 C29.2089881,14.415462 29.2655563,14.3400377 29.3032684,14.2646135 C29.3409805,14.1891892 29.3786926,14.1137649 29.3975487,14.0383407 C29.4541169,13.8874921 29.5295412,13.7554997 29.5672533,13.6423633 C29.6049654,13.5292269 29.6426776,13.4160905 29.6803897,13.3218102 C29.7369579,13.1521056 29.77467,13.0389692 29.77467,13.0389692 C29.8312382,12.8692646 29.755814,12.6618479 29.5861094,12.5675676 C29.3975487,12.4732872 29.1712759,12.5487115 29.0769956,12.7372722 L29.0581395,12.7749843 C29.0581395,12.7749843 29.0204274,12.8504085 28.9450031,13.0012571 C28.907291,13.0766813 28.8695789,13.1709617 28.8130107,13.265242 C28.7564425,13.3595223 28.6810182,13.4726587 28.62445,13.5857951 C28.5867379,13.6423633 28.5490258,13.6989315 28.5113136,13.7743558 C28.4736015,13.8309239 28.4170333,13.8874921 28.3793212,13.9629164 C28.3416091,14.0194846 28.2850409,14.0949089 28.2284727,14.1514771 C28.1719045,14.2269013 28.1153363,14.2834695 28.0587681,14.3400377 C28.0021999,14.3966059 27.9456317,14.4720302 27.8890635,14.5285984 C27.8324953,14.5851666 27.757071,14.6605908 27.7005028,14.717159 C27.6439346,14.7737272 27.5685104,14.8491515 27.5119422,14.9057197 L27.3045255,15.0754243 C27.172533,15.1885607 27.0216845,15.301697 26.870836,15.4148334 C26.7199874,15.5279698 26.5691389,15.6222502 26.4371464,15.7165305 C26.3994343,15.7353865 26.3617222,15.7730987 26.305154,15.7919547 C26.3994343,14.9622879 26.4560025,14.1514771 26.4560025,13.3595223 C26.4560025,13.0955374 26.4560025,12.8315525 26.4560025,12.5864236 C26.4748586,12.5109994 26.4937146,12.4355751 26.4748586,12.3412948 C26.4748586,12.3412948 26.4748586,12.3035827 26.4748586,12.2093023 C26.4748586,12.115022 26.4748586,12.0018856 26.4371464,11.8510371 C26.4371464,11.832181 26.4371464,11.813325 26.4182904,11.7944689 C26.3617222,10.8139535 26.2485858,9.87115022 26.0600251,9.04148334 C25.9280327,8.41923319 25.739472,7.85355123 25.5509114,7.36329353 C25.3623507,6.87303583 25.1360779,6.45820239 24.9286612,6.11879321 C24.7212445,5.7982401 24.5326838,5.55311125 24.4006914,5.38340666 C24.3252671,5.3079824 24.2686989,5.2514142 24.2309868,5.21370207 C24.1932747,5.17598994 24.1744186,5.15713388 24.1744186,5.15713388 C24.004714,4.96857322 23.703017,4.94971716 23.5144563,5.10056568 C23.3070396,5.27027027 23.2504714,5.57196732 23.420176,5.7982401 L23.4390321,5.81709617 C23.4390321,5.81709617 23.4578881,5.83595223 23.4767442,5.87366436 C23.4956003,5.91137649 23.5521684,5.94908862 23.5898806,6.02451288 C23.6841609,6.15650534 23.8350094,6.36392206 23.985858,6.66561911 C24.1367065,6.94846009 24.287555,7.3255814 24.4195475,7.7592709 C24.5515399,8.1929604 24.6646763,8.72093023 24.7401006,9.28661219 C24.7401006,9.34318039 24.7589566,9.38089252 24.7589566,9.43746072 C24.6646763,9.36203646 24.589252,9.28661219 24.4949717,9.21118793 C24.3064111,9.06033941 24.0989943,8.90949089 23.8915776,8.75864236 C23.0619107,8.1929604 22.1945317,7.72155877 21.5534255,7.38214959 C21.2328724,7.212445 20.9500314,7.08045255 20.7426147,7.00502828 C20.535198,6.91074796 20.4220616,6.87303583 20.4220616,6.87303583 C20.2712131,6.79761157 20.0826524,6.85417976 19.9883721,7.00502828 C19.8940918,7.17473287 19.95066,7.38214959 20.1015085,7.47642992 L20.1203646,7.47642992 C20.1203646,7.47642992 20.2146449,7.53299811 20.4032055,7.64613451 C20.5729101,7.7592709 20.836895,7.91011942 21.119736,8.11753614 C21.704274,8.51351351 22.4773727,9.06033941 23.1750471,9.68258957 C23.3447517,9.83343809 23.5144563,10.0031427 23.6653048,10.1539912 C23.7407291,10.2294155 23.8161534,10.3048397 23.8915776,10.3991201 C23.9670019,10.4745443 24.0424261,10.5499686 24.0989943,10.6442489 C24.2309868,10.7950974 24.3441232,10.964802 24.4384035,11.0967945 C24.4949717,11.1722187 24.5326838,11.247643 24.570396,11.3042112 C24.6081081,11.3796354 24.6458202,11.4362036 24.6646763,11.5116279 C24.6835324,11.5681961 24.7212445,11.6436204 24.7401006,11.7001886 C24.7589566,11.7567568 24.7778127,11.813325 24.7778127,11.8510371 C24.7966688,11.9453174 24.8155248,12.0207417 24.8155248,12.0773099 C24.8155248,12.1338781 24.8155248,12.1715902 24.8155248,12.2093023 C24.8155248,12.2281584 24.8155248,12.2470145 24.8155248,12.2470145 L24.8155248,12.3224387 C24.8155248,12.3601508 24.8155248,12.3790069 24.8155248,12.416719 C24.8155248,12.4732872 24.8343809,12.5298554 24.8343809,12.5864236 C24.8155248,12.8126964 24.7966688,13.0578253 24.7778127,13.2840981 C24.6269642,14.7548712 24.3441232,16.3010685 23.8915776,17.7906977 C23.6653048,18.5449403 23.420176,19.2614708 23.1184789,19.9402891 C22.9676304,20.2796983 22.8167819,20.6002514 22.6470773,20.9019485 C22.4396606,20.6002514 22.2322439,20.2419862 22.0625393,19.8837209 C21.987115,19.7328724 21.9116908,19.5820239 21.8551226,19.4311754 C21.8174104,19.3557511 21.7985544,19.2803268 21.7608422,19.2049026 C21.7419862,19.1294783 21.704274,19.0540541 21.685418,18.9786298 C21.6477058,18.8277813 21.6099937,18.6769327 21.5722816,18.5449403 C21.5534255,18.4129478 21.5345695,18.2809554 21.5157134,18.1489629 C21.5157134,18.0923947 21.5157134,18.0358265 21.4968573,17.9792583 C21.4968573,17.9226901 21.4968573,17.8661219 21.4968573,17.8284098 C21.4968573,17.7341295 21.5157134,17.6398492 21.5157134,17.583281 C21.5345695,17.4512885 21.5534255,17.3570082 21.5534255,17.3570082 L21.5534255,17.3381521 C21.5722816,17.1495915 21.4780013,16.9798869 21.2894406,16.9233187 C21.0820239,16.8667505 20.8746072,16.9610308 20.7991829,17.1684475 C20.7991829,17.1684475 20.7614708,17.2627278 20.7237586,17.4324324 C20.7049026,17.5267128 20.6671904,17.6209931 20.6483344,17.7529855 C20.6483344,17.8095537 20.6294783,17.884978 20.6106223,17.9415462 C20.6106223,18.0169705 20.5917662,18.0923947 20.5917662,18.167819 C20.5917662,18.3186675 20.5729101,18.4883721 20.5917662,18.6580767 C20.5917662,18.8277813 20.6106223,19.0163419 20.6483344,19.2049026 C20.6671904,19.2991829 20.6860465,19.3934632 20.6860465,19.4877436 C20.7049026,19.5820239 20.7237586,19.6763042 20.7426147,19.7705845 C20.7803268,19.9591452 20.836895,20.1477058 20.8934632,20.3362665 C21.119736,21.0339409 21.4214331,21.6939032 21.685418,22.1841609 C21.5722816,22.3350094 21.4402891,22.504714 21.3271527,22.6555625 C21.0820239,23.0138278 20.8746072,23.353237 20.6860465,23.7115022 C20.3277813,24.4091766 20.0449403,25.087995 19.8375236,25.7291012 C19.6489629,26.2759271 19.5169705,26.7850409 19.4226901,27.2564425 C18.9701446,26.6719045 18.517599,26.1062225 18.0839095,25.5405405 C17.4239472,24.7108737 16.801697,23.937775 16.198303,23.1835324 C16.198303,22.9572596 16.198303,22.6932747 16.198303,22.3727216 C16.198303,21.5053426 16.1794469,20.3551226 16.1417348,19.1860465 C16.1228787,18.9032055 16.1228787,18.6015085 16.1040226,18.3186675 C16.0851666,18.0358265 16.0851666,17.7529855 16.0663105,17.4890006 C16.0474544,17.2250157 16.0285984,16.9610308 16.0097423,16.6970459 C15.9908862,16.451917 15.9720302,16.2067882 15.9531741,15.9993715 C15.934318,15.7730987 15.8966059,15.584538 15.8777498,15.3959774 C15.8400377,15.2074167 15.8211816,15.0565682 15.8023256,14.9245757 C15.7269013,14.6605908 15.6891892,14.5097423 15.6891892,14.5097423 C15.6514771,14.3588938 15.4817725,14.2457574 15.3309239,14.2646135 C15.1612194,14.2834695 15.0292269,14.4531741 15.048083,14.6417348 L15.048083,14.698303 C15.048083,14.698303 15.066939,14.8302954 15.1046512,15.0565682 C15.1046512,15.1697046 15.1235072,15.3205531 15.1235072,15.4902577 C15.1235072,15.6599623 15.1235072,15.8485229 15.1423633,16.0559397 C15.1423633,16.2633564 15.1423633,16.4896292 15.1235072,16.734758 C15.1046512,16.9798869 15.1046512,17.2438718 15.0857951,17.5078567 C15.066939,17.7718416 15.048083,18.0546826 15.0292269,18.3375236 C15.0103708,18.6203646 14.9915148,18.9032055 14.9726587,19.1860465 C14.9160905,19.9780013 14.8406662,20.769956 14.765242,21.4676304 C13.8790069,20.3739786 13.1247643,19.4500314 12.5967945,18.8089252 C12.0499686,18.1301069 11.7294155,17.7529855 11.7294155,17.7529855 C11.4465745,17.4135764 10.9563168,17.3570082 10.5980515,17.6209931 C10.2397863,17.884978 10.145506,18.4129478 10.428347,18.7712131 L10.428347,18.7712131 C10.428347,18.7712131 10.730044,19.1671904 11.2391578,19.8648649 C11.7482715,20.5625393 12.4836581,21.5619107 13.3510371,22.7498429 C14.1241358,23.8246386 15.0292269,25.0691389 15.9720302,26.4079195 C15.934318,26.4079195 15.915462,26.4079195 15.8777498,26.4079195 C15.6703331,26.4079195 15.4252043,26.4079195 15.1989315,26.4079195 C14.9726587,26.4079195 14.7275299,26.3890635 14.482401,26.3890635 C14.2372722,26.3702074 13.9921433,26.3513514 13.7470145,26.3136392 C13.5018856,26.2759271 13.2567568,26.238215 13.0116279,26.2005028 C12.8984915,26.1816468 12.7664991,26.1439346 12.6533627,26.1250786 C12.5402263,26.0873664 12.4270899,26.0685104 12.3139535,26.0307982 C12.0876807,25.97423 11.880264,25.8988058 11.6917033,25.8233815 C11.5031427,25.7479573 11.314582,25.672533 11.1448774,25.5782527 C11.0694532,25.5405405 10.9940289,25.5028284 10.9186047,25.4462602 C10.8431804,25.4085481 10.7866122,25.370836 10.7111879,25.3142678 C10.5791955,25.2388435 10.4849151,25.1634192 10.3906348,25.087995 C10.3152106,25.0314268 10.2397863,24.9748586 10.2020742,24.9371464 C10.164362,24.8994343 10.1266499,24.8805783 10.1266499,24.8805783 L10.1077938,24.8617222 C9.95694532,24.7297297 9.73067253,24.7485858 9.57982401,24.8805783 C9.42897549,25.0314268 9.42897549,25.2765556 9.57982401,25.4462602 C9.57982401,25.4462602 9.59868008,25.4651163 9.65524827,25.5216845 C9.71181647,25.5782527 9.76838466,25.6348209 9.86266499,25.7291012 C9.95694532,25.8045255 10.0700817,25.9176618 10.2020742,26.0307982 C10.2774984,26.0873664 10.3340666,26.1439346 10.428347,26.2005028 C10.5037712,26.257071 10.5980515,26.3136392 10.6734758,26.3702074 C10.8431804,26.4833438 11.0505971,26.5964802 11.2580138,26.7096166 C11.4654305,26.822753 11.7105594,26.9358894 11.9556882,27.0301697 C12.0688246,27.0867379 12.2008171,27.12445 12.3328096,27.1810182 C12.464802,27.2187304 12.5967945,27.2752986 12.7287869,27.3130107 C12.9927718,27.3884349 13.2567568,27.4638592 13.5207417,27.5204274 C13.7847266,27.5769956 14.0675676,27.6335638 14.3315525,27.690132 C14.5955374,27.7278441 14.8595223,27.7655563 15.1235072,27.8032684 C15.3874921,27.8409805 15.632621,27.8598366 15.8588938,27.8786926 C16.0851666,27.8975487 16.3114393,27.8975487 16.5188561,27.9164048 C16.7074167,27.9164048 16.8771213,27.9164048 17.0468259,27.9164048 C17.8953488,29.123193 18.7627278,30.3676933 19.6112508,31.6310497 C20.1580767,32.4418605 20.7049026,33.2526713 21.2328724,34.0634821 C21.4968573,34.4594595 21.7419862,34.8742929 21.987115,35.2702703 C22.2322439,35.6662476 22.4585167,36.062225 22.6470773,36.4204903 C22.7413576,36.6090509 22.835638,36.7787555 22.8922062,36.929604 L22.9299183,37.0050283 L22.9299183,37.0050283 L22.9299183,37.0050283 L22.9299183,37.0050283 C22.9299183,37.0050283 22.9299183,37.0050283 22.9299183,37.0050283 L22.9299183,37.0050283 L22.9299183,37.0238843 C22.9299183,37.0238843 22.9299183,37.0427404 22.9299183,37.0427404 L22.9299183,37.0615965 L22.9299183,37.0993086 L22.9487744,37.2313011 C22.9676304,37.3821496 22.9864865,37.5895663 23.0053426,37.778127 C23.0053426,37.8724073 23.0241986,37.9666876 23.0241986,38.0609679 C23.0241986,38.1552483 23.0241986,38.2495286 23.0430547,38.362665 C23.0430547,38.4003771 23.0430547,38.4380893 23.0430547,38.4758014 C22.3642363,37.9289755 21.5534255,37.3067253 20.6860465,36.646763 C20.3089252,36.3639221 19.8940918,36.062225 19.4792583,35.760528 C19.4415462,35.1759899 19.3661219,34.4217473 19.2529855,33.6863608 C19.2152734,33.4789441 19.1964173,33.2715273 19.1398492,33.0829667 C19.102137,32.87555 19.0644249,32.6869893 19.0078567,32.4984287 C18.9701446,32.309868 18.9135764,32.1213074 18.8570082,31.9516028 C18.80044,31.7818982 18.7438718,31.6121936 18.6873036,31.4613451 C18.6307354,31.3104965 18.5741672,31.1785041 18.4987429,31.0465116 C18.4421747,30.9145192 18.3856065,30.8202388 18.3101823,30.7259585 C18.2724701,30.6882464 18.2536141,30.6505343 18.234758,30.6128221 C18.2159019,30.57511 18.1781898,30.5562539 18.1593338,30.5373979 C18.1216216,30.4996857 18.1027656,30.4619736 18.1027656,30.4619736 C17.9707731,30.3111251 17.7633564,30.2734129 17.5747957,30.3676933 C17.3862351,30.4808297 17.3108108,30.7259585 17.4239472,30.9333752 L17.4616593,30.9899434 C17.4616593,30.9899434 17.4805154,31.0087995 17.4805154,31.0276556 C17.4993715,31.0653677 17.5182275,31.1030798 17.5559397,31.159648 C17.5936518,31.2162162 17.6125079,31.3104965 17.65022,31.4047769 C17.6879321,31.4990572 17.7256442,31.6121936 17.7445003,31.744186 C17.7822124,31.8761785 17.8010685,32.027027 17.8387806,32.1778755 C17.8576367,32.3287241 17.8953488,32.4984287 17.9142049,32.6869893 C17.933061,32.8566939 17.951917,33.0452546 17.951917,33.2338152 C17.9707731,33.4223759 17.9707731,33.6109365 17.9707731,33.7994972 C17.9707731,34.1200503 17.9707731,34.4594595 17.9707731,34.7611565 C17.8764928,34.7045883 17.8010685,34.6480201 17.7067882,34.5914519 C17.4428033,34.4217473 17.1788184,34.2520427 16.8959774,34.1011942 C16.7451288,34.02577 16.6131364,33.9503457 16.4622879,33.8749214 C16.3868636,33.8372093 16.3114393,33.7994972 16.2360151,33.761785 L16.1040226,33.7052168 L16.0474544,33.6863608 L16.0097423,33.6675047 C15.5194846,33.460088 15.0292269,33.2338152 14.5766813,32.9886864 C13.6527341,32.4984287 12.8230673,31.9516028 12.163105,31.4613451 C11.8236958,31.2162162 11.5408548,30.9710874 11.314582,30.7636706 C11.0883092,30.5562539 10.9186047,30.3488372 10.8054683,30.2168448 C10.6923319,30.0659962 10.6734758,29.990572 10.6734758,30.009428 C10.6734758,30.0282841 10.6546197,30.0848523 10.6546197,30.0848523 L10.5603394,29.7265871 C10.4849151,29.4437461 10.2774984,29.2174733 9.97580138,29.1609051 C9.56096794,29.0666248 9.12727844,29.3117536 9.03299811,29.7454431 C9.03299811,29.7454431 9.01414205,29.7831552 9.01414205,29.8774356 C8.99528598,29.9717159 8.99528598,30.1037084 9.01414205,30.2357008 C9.05185418,30.5185418 9.16499057,30.8390949 9.33469516,31.1219359 C9.50439975,31.4236329 9.73067253,31.7064739 9.99465745,32.008171 C10.2586424,32.309868 10.5603394,32.6304211 10.9186047,32.9321182 C11.6162791,33.5732244 12.464802,34.2331867 13.4264613,34.8742929 C13.6715902,35.0439975 13.9355751,35.2137021 14.2184161,35.3645506 C14.0864236,35.4022627 13.9732872,35.4211188 13.8412948,35.4588309 C13.6338781,35.4965431 13.4264613,35.5342552 13.2190446,35.5908234 C12.8042112,35.6662476 12.3893777,35.7416719 11.9934004,35.8170962 C11.597423,35.8736644 11.2203017,35.9302326 10.8997486,35.9868008 C10.5791955,36.0245129 10.3152106,36.062225 10.1266499,36.0810811 C9.93808925,36.0999371 9.84380893,36.1187932 9.84380893,36.1187932 L9.84380893,36.1187932 C9.6929604,36.1376493 9.57982401,36.2696417 9.56096794,36.4204903 C9.56096794,36.5901948 9.6929604,36.7410434 9.86266499,36.7410434 C9.86266499,36.7410434 9.97580138,36.7410434 10.164362,36.7410434 C10.3529227,36.7410434 10.6357637,36.7598994 10.9563168,36.7598994 C11.2768699,36.7598994 11.6728473,36.7598994 12.0688246,36.7598994 C12.4836581,36.7598994 12.9173476,36.7410434 13.3510371,36.7221873 C13.5773099,36.7033312 13.7847266,36.7033312 14.0109994,36.6844752 C14.2372722,36.6656191 14.4446889,36.6656191 14.6521056,36.627907 C14.8595223,36.6090509 15.066939,36.5901948 15.2554997,36.5524827 C15.4440603,36.5336266 15.632621,36.4959145 15.8023256,36.4770585 C15.8588938,36.4770585 15.8966059,36.4582024 15.9531741,36.4582024 C16.0663105,36.5336266 16.1605908,36.627907 16.2737272,36.7033312 C16.7074167,37.0427404 17.1411062,37.4198617 17.5747957,37.778127 C18.0084852,38.1552483 18.4233187,38.5323696 18.819296,38.8906348 C19.6112508,39.6260214 20.3466373,40.3236958 20.9877436,40.9459459 C21.6099937,41.54934 22.1379635,42.0773099 22.4962288,42.4355751 C22.6659334,42.6052797 22.7979258,42.7372722 22.8922062,42.8315525 C22.854494,43.3595223 22.8167819,43.8309239 22.7790698,44.2269013 C22.7602137,44.5285984 22.7225016,44.7925833 22.7036455,45 L26.022313,45 C26.022313,44.8302954 26.0411691,44.6417348 26.0411691,44.415462 C26.0600251,43.9817725 26.0600251,43.4349466 26.0788812,42.8315525 C26.0788812,42.2093023 26.0977373,41.530484 26.0788812,40.7573853 C26.0788812,40.5499686 26.0788812,40.3425519 26.0600251,40.1162791 C27.5496543,39.4374607 30.9437461,37.8346952 33.22533,36.0810811 C33.5835952,35.7982401 33.6590195,35.2891263 33.3761785,34.9308611 C33.0933375,34.5725959 32.5842238,34.4971716 32.2259585,34.7800126 C31.3962916,35.4211188 30.3780641,36.043369 29.3786926,36.5901948 L30.0386549,35.1194217 C30.2272156,34.7045883 30.0386549,34.2143306 29.6238215,34.02577 C29.2089881,33.8372093 28.7187304,34.02577 28.5301697,34.4406034 L27.1159648,37.6272784 C27.0971087,37.6838466 27.0782527,37.7404148 27.0593966,37.8158391 C26.6634192,38.0232558 26.2862979,38.1929604 25.9468887,38.3438089 C25.9468887,38.3249529 25.9468887,38.2872407 25.9468887,38.2683847 C25.9280327,38.1552483 25.9280327,38.0421119 25.9091766,37.9289755 C25.8903206,37.8158391 25.8903206,37.7027027 25.8714645,37.5707102 C25.8337524,37.3255814 25.8148963,37.0804525 25.7583281,36.7976116 C25.739472,36.7221873 25.739472,36.6656191 25.720616,36.5901948 L25.7017599,36.5336266 L25.7017599,36.5147706 C25.7017599,36.4770585 25.720616,36.5713388 25.6829038,36.4393463 L25.6829038,36.4204903 L25.6640478,36.345066 L25.6451917,36.2884978 L25.6074796,36.1942175 C25.5886235,36.1376493 25.5697674,36.0810811 25.5509114,36.0245129 L25.456631,35.8170962 C25.3246386,35.5531113 25.1926461,35.3268385 25.0606537,35.1194217 C24.9852294,34.9874293 24.8909491,34.8554368 24.8155248,34.7234444 C25.0040855,34.5537398 25.1926461,34.3463231 25.3812068,34.0823382 C25.6074796,33.761785 25.8714645,33.4223759 26.1731615,33.0452546 C26.4560025,32.6681332 26.7765556,32.2532998 27.1159648,31.8196103 C27.455374,31.3859208 27.8136392,30.9333752 28.1907605,30.4619736 C28.2850409,30.3299811 28.3981772,30.2168448 28.4924576,30.0848523 C28.7941546,30.1225644 29.1524199,30.1791326 29.5672533,30.2357008 C30.6797612,30.3676933 32.1882464,30.4996857 33.6967316,30.4996857 C34.0738529,30.4996857 34.4509742,30.4808297 34.8280955,30.4619736 C35.0166562,30.4431175 35.2052168,30.4431175 35.3749214,30.4242615 C35.5634821,30.4054054 35.7331867,30.3865493 35.9028913,30.3676933 C36.0725959,30.3488372 36.2611565,30.3299811 36.4308611,30.3111251 C36.6005657,30.292269 36.7702703,30.2545569 36.9211188,30.2357008 C37.0908234,30.1979887 37.2416719,30.1791326 37.3925204,30.1414205 C37.543369,30.1037084 37.6942175,30.0848523 37.8262099,30.0471402 C38.1090509,29.9717159 38.3541798,29.9151477 38.5804525,29.8397234 C38.8067253,29.7831552 38.995286,29.6888749 39.1461345,29.6511628 C39.296983,29.5945946 39.4289755,29.5380264 39.5043997,29.5003143 C39.579824,29.4626021 39.6363922,29.4437461 39.6363922,29.4437461 C39.7872407,29.3683218 39.8815211,29.1986172 39.8249529,29.0289126 C39.9192332,28.8214959 39.7306725,28.7272156 39.5609679,28.7837838 Z" id="Shape"></path>
        </g>
    </g>
</svg>