<?xml version="1.0" encoding="UTF-8"?>
<svg width="54px" height="54px" viewBox="0 0 54 54" version="1.1" xmlns="http://www.w3.org/2000/svg" xmlns:xlink="http://www.w3.org/1999/xlink">
    <!-- Generator: Sketch 46.2 (44496) - http://www.bohemiancoding.com/sketch -->
    <title>tool_active</title>
    <desc>Created with Sketch.</desc>
    <defs></defs>
    <g id="home" stroke="none" stroke-width="1" fill="none" fill-rule="evenodd">
        <g id="tool_active" fill="#3EC6FF">
            <g id="Group" transform="translate(5.000000, 5.000000)">
                <path d="M15.566,16.72 L13.964,17.98 C13.994,18.15 14.016,18.326 14.016,18.506 L14.016,20.484 L16.802,18.294 C17.238,17.952 17.312,17.32 16.97,16.888 C16.628,16.456 16,16.376 15.566,16.72" id="Fill-5835"></path>
                <path d="M11.016,17.506 L1.016,17.506 C0.464,17.506 0.016,17.956 0.016,18.506 L0.016,28.506 C0.016,29.06 0.464,29.506 1.016,29.506 L11.016,29.506 C11.57,29.506 12.016,29.06 12.016,28.506 L12.016,22.058 L6.634,26.294 C6.458,26.432 6.238,26.506 6.016,26.506 C5.942,26.506 5.868,26.5 5.792,26.48 C5.5,26.416 5.25,26.216 5.118,25.946 L3.204,22.03 C2.96,21.534 3.164,20.934 3.66,20.694 C4.158,20.45 4.756,20.654 5,21.148 L6.372,23.956 L12.016,19.514 L12.016,18.506 C12.016,17.956 11.57,17.506 11.016,17.506" id="Fill-5836"></path>
                <path d="M11.016,33.506 L1.016,33.506 C0.464,33.506 0.016,33.954 0.016,34.506 L0.016,44.506 C0.016,45.06 0.464,45.506 1.016,45.506 L11.016,45.506 C11.57,45.506 12.016,45.06 12.016,44.506 L12.016,34.506 C12.016,33.954 11.57,33.506 11.016,33.506" id="Fill-5837"></path>
                <path d="M44.016,35.506 L22.016,35.506 C21.464,35.506 21.016,35.954 21.016,36.506 C21.016,37.06 21.464,37.506 22.016,37.506 L44.016,37.506 C44.57,37.506 45.016,37.06 45.016,36.506 C45.016,35.954 44.57,35.506 44.016,35.506" id="Fill-5838"></path>
                <path d="M44.016,41.506 L22.016,41.506 C21.464,41.506 21.016,41.954 21.016,42.506 C21.016,43.06 21.464,43.506 22.016,43.506 L44.016,43.506 C44.57,43.506 45.016,43.06 45.016,42.506 C45.016,41.954 44.57,41.506 44.016,41.506" id="Fill-5839"></path>
                <path d="M44.016,19.506 L22.016,19.506 C21.464,19.506 21.016,19.956 21.016,20.506 C21.016,21.06 21.464,21.506 22.016,21.506 L44.016,21.506 C44.57,21.506 45.016,21.06 45.016,20.506 C45.016,19.956 44.57,19.506 44.016,19.506" id="Fill-5840"></path>
                <path d="M44.016,25.506 L22.016,25.506 C21.464,25.506 21.016,25.956 21.016,26.506 C21.016,27.06 21.464,27.506 22.016,27.506 L44.016,27.506 C44.57,27.506 45.016,27.06 45.016,26.506 C45.016,25.956 44.57,25.506 44.016,25.506" id="Fill-5841"></path>
                <path d="M22.016,5.506 L44.016,5.506 C44.57,5.506 45.016,5.06 45.016,4.506 C45.016,3.956 44.57,3.506 44.016,3.506 L22.016,3.506 C21.464,3.506 21.016,3.956 21.016,4.506 C21.016,5.06 21.464,5.506 22.016,5.506" id="Fill-5842"></path>
                <path d="M44.016,9.506 L22.016,9.506 C21.464,9.506 21.016,9.956 21.016,10.506 C21.016,11.06 21.464,11.506 22.016,11.506 L44.016,11.506 C44.57,11.506 45.016,11.06 45.016,10.506 C45.016,9.956 44.57,9.506 44.016,9.506" id="Fill-5843"></path>
                <path d="M15.566,0.72 L13.964,1.98 C13.994,2.15 14.016,2.326 14.016,2.506 L14.016,4.484 L16.802,2.294 C17.238,1.952 17.312,1.32 16.97,0.888 C16.628,0.456 16,0.376 15.566,0.72" id="Fill-5844"></path>
                <path d="M11.016,1.506 L1.016,1.506 C0.464,1.506 0.016,1.956 0.016,2.506 L0.016,12.506 C0.016,13.06 0.464,13.506 1.016,13.506 L11.016,13.506 C11.57,13.506 12.016,13.06 12.016,12.506 L12.016,6.058 L6.634,10.294 C6.458,10.434 6.238,10.506 6.016,10.506 C5.942,10.506 5.868,10.5 5.792,10.48 C5.5,10.414 5.25,10.216 5.118,9.946 L3.204,6.03 C2.96,5.534 3.164,4.936 3.66,4.694 C4.158,4.45 4.756,4.654 5,5.148 L6.372,7.956 L12.016,3.512 L12.016,2.506 C12.016,1.956 11.57,1.506 11.016,1.506" id="Fill-5845"></path>
            </g>
        </g>
    </g>
</svg>