<?xml version="1.0" encoding="UTF-8"?>
<svg width="54px" height="54px" viewBox="0 0 54 54" version="1.1" xmlns="http://www.w3.org/2000/svg" xmlns:xlink="http://www.w3.org/1999/xlink">
    <!-- Generator: Sketch 46.2 (44496) - http://www.bohemiancoding.com/sketch -->
    <title>tool</title>
    <desc>Created with Sketch.</desc>
    <defs></defs>
    <g id="home" stroke="none" stroke-width="1" fill="none" fill-rule="evenodd">
        <g id="tool" fill="#999999">
            <g id="Group" transform="translate(5.000000, 5.000000)">
                <path d="M1.6,11.7293012 L11.2,11.7293012 L11.2,2.12954575 L1.6,2.12954575 L1.6,11.7293012 Z M12,13.3292604 L0.8,13.3292604 C0.3584,13.3292604 0,12.9756695 0,12.5276809 L0,1.32956613 C0,0.881577542 0.3584,0.52798655 0.8,0.52798655 L12,0.52798655 C12.4416,0.52798655 12.8,0.881577542 12.8,1.32956613 L12.8,12.5276809 C12.8,12.9756695 12.4416,13.3292604 12,13.3292604 L12,13.3292604 Z" id="Fill-9719"></path>
                <path d="M6.3808,9.53575708 C6.3216,9.53575708 6.2624,9.52135745 6.2032,9.5037579 C5.9664,9.45575912 5.768,9.29736315 5.6624,9.0717689 L3.7472,5.16786835 C3.5536,4.76787854 3.7168,4.28949073 4.1136,4.09749562 C4.5104,3.90390055 4.9888,4.06549643 5.184,4.46388628 L6.664,7.48940921 L16.056,0.0959975545 C16.4032,-0.174395557 16.9056,-0.110397188 17.1776,0.239993886 C17.4512,0.575985327 17.392,1.08957224 17.0432,1.36156531 L6.8768,9.35976157 C6.7344,9.47175871 6.5584,9.53575708 6.3808,9.53575708" id="Fill-9720"></path>
                <path d="M1.6,27.7288936 L11.2,27.7288936 L11.2,18.1291382 L1.6,18.1291382 L1.6,27.7288936 Z M12,29.3272529 L0.8,29.3272529 C0.3584,29.3272529 0,28.9752619 0,28.5288732 L0,17.3275586 C0,16.87957 0.3584,16.5291789 0.8,16.5291789 L12,16.5291789 C12.4416,16.5291789 12.8,16.87957 12.8,17.3275586 L12.8,28.5288732 C12.8,28.9752619 12.4416,29.3272529 12,29.3272529 L12,29.3272529 Z" id="Fill-9721"></path>
                <path d="M6.3808,25.5353495 C6.3216,25.5353495 6.2624,25.5193499 6.2032,25.5033503 C5.9664,25.4569515 5.768,25.2953556 5.6624,25.0713613 L3.7472,21.1674608 C3.5536,20.767471 3.7168,20.2890831 4.1136,20.097088 C4.5104,19.903493 4.9888,20.0634889 5.184,20.4650787 L6.664,23.4890016 L16.056,16.0971899 C16.4032,15.8251969 16.9056,15.8891952 17.1776,16.2395863 C17.4512,16.5755777 17.392,17.0891647 17.0432,17.3611577 L6.8768,25.3609539 C6.7344,25.4713511 6.5584,25.5353495 6.3808,25.5353495" id="Fill-9722"></path>
                <path d="M1.6,43.7268861 L11.2,43.7268861 L11.2,34.1271306 L1.6,34.1271306 L1.6,43.7268861 Z M12,45.3284453 L0.8,45.3284453 C0.3584,45.3284453 0,44.9748543 0,44.5284657 L0,33.328751 C0,32.8807624 0.3584,32.5287713 0.8,32.5287713 L12,32.5287713 C12.4416,32.5287713 12.8,32.8807624 12.8,33.328751 L12.8,44.5284657 C12.8,44.9748543 12.4416,45.3284453 12,45.3284453 L12,45.3284453 Z" id="Fill-9723"></path>
                <path d="M44.8,37.3286491 L22.4,37.3286491 C21.9584,37.3286491 21.6,36.9750581 21.6,36.5270695 C21.6,36.0790809 21.9584,35.7286898 22.4,35.7286898 L44.8,35.7286898 C45.2416,35.7286898 45.6,36.0790809 45.6,36.5270695 C45.6,36.9750581 45.2416,37.3286491 44.8,37.3286491" id="Fill-9724"></path>
                <path d="M44.8,42.1285268 L22.4,42.1285268 C21.9584,42.1285268 21.6,41.7749358 21.6,41.3269472 C21.6,40.8789586 21.9584,40.5285676 22.4,40.5285676 L44.8,40.5285676 C45.2416,40.5285676 45.6,40.8789586 45.6,41.3269472 C45.6,41.7749358 45.2416,42.1285268 44.8,42.1285268" id="Fill-9725"></path>
                <path d="M44.8,21.3290567 L22.4,21.3290567 C21.9584,21.3290567 21.6,20.9754657 21.6,20.529077 C21.6,20.0810884 21.9584,19.7274975 22.4,19.7274975 L44.8,19.7274975 C45.2416,19.7274975 45.6,20.0810884 45.6,20.529077 C45.6,20.9754657 45.2416,21.3290567 44.8,21.3290567" id="Fill-9726"></path>
                <path d="M44.8,26.1289344 L22.4,26.1289344 C21.9584,26.1289344 21.6,25.7753434 21.6,25.3289548 C21.6,24.8809662 21.9584,24.5273752 22.4,24.5273752 L44.8,24.5273752 C45.2416,24.5273752 45.6,24.8809662 45.6,25.3289548 C45.6,25.7753434 45.2416,26.1289344 44.8,26.1289344" id="Fill-9727"></path>
                <path d="M44.8,5.32786428 L22.4,5.32786428 C21.9584,5.32786428 21.6,4.97587324 21.6,4.52948461 C21.6,4.08149603 21.9584,3.72950499 22.4,3.72950499 L44.8,3.72950499 C45.2416,3.72950499 45.6,4.08149603 45.6,4.52948461 C45.6,4.97587324 45.2416,5.32786428 44.8,5.32786428" id="Fill-9728"></path>
                <path d="M44.8,10.127742 L22.4,10.127742 C21.9584,10.127742 21.6,9.77575097 21.6,9.32936234 C21.6,8.88137375 21.9584,8.52938272 22.4,8.52938272 L44.8,8.52938272 C45.2416,8.52938272 45.6,8.88137375 45.6,9.32936234 C45.6,9.77575097 45.2416,10.127742 44.8,10.127742" id="Fill-9729"></path>
            </g>
        </g>
    </g>
</svg>