<?xml version="1.0" encoding="UTF-8"?>
<svg width="64px" height="64px" viewBox="0 0 64 64" version="1.1" xmlns="http://www.w3.org/2000/svg" xmlns:xlink="http://www.w3.org/1999/xlink">
    <!-- Generator: Sketch 50.2 (55047) - http://www.bohemiancoding.com/sketch -->
    <title>la</title>
    <desc>Created with Sketch.</desc>
    <defs></defs>
    <g id="Page-1" stroke="none" stroke-width="1" fill="none" fill-rule="evenodd">
    <circle id="bg" stroke="#ffffff" stroke-width="4" opacity="0" fill-rule="nonzero" cx="28" cy="31" r="28"></circle>
          
        <g id="la" transform="translate(2.000000, 0.000000)">
            
            <g transform="translate(8.000000, 18.500000)" fill-rule="nonzero">
                <path d="M9.42030079,0.000481696843 C10.7224872,-0.0164968358 12.6464896,0.412211113 12.0211779,1.78704779 C11.7087405,2.4742539 10.9422858,2.82443613 10.2933775,3.19456814 C9.30625023,3.7574065 8.30251792,4.31302898 7.37656721,4.94505486 C5.16066536,6.45614426 3.06318382,8.15017735 1.98953546,10.7729362 C1.59887952,11.7288276 1.22788747,13.1923771 1.46953482,14.598624 L1.74832508,16.1504619 L2.0454683,17.1428571 L2.02667836,17.1428571 L2.00788842,17.1067778 L1.59931649,16.3486863 C1.24973624,15.6079978 0.915450118,14.8724029 0.614811097,14.0387569 C0.405062943,13.4572422 0.267852692,12.8078133 0.131953367,12.1439527 C-0.178736086,10.6281942 0.103112996,8.81913153 0.522172329,7.66883595 C1.69719897,4.44291475 4.26268108,2.27815185 7.09865091,0.665191248 C7.5697103,0.397354897 8.14739168,0.23011635 8.73337558,0.0879211398 L9.42030079,0.000481696843 Z" id="Shape" fill="#EB9E33">
                
                     <animate attributeName="opacity" from="1" to="0" begin="0s" dur="2s" repeatCount="indefinite" />
                </path>
                <path d="M24.39574,5.00134174 C25.9449076,4.97720392 27.3452011,5.27695172 28.1175955,6.04628977 C28.4617577,6.38860789 28.7800858,7.00785261 28.3969536,7.55775596 C27.8018946,8.4117958 26.5500376,8.51405236 25.2881096,8.71461568 L24.0966779,8.75191958 L21.7882518,8.90113517 C19.7837041,9.22677626 17.8063042,9.24959747 15.9804056,9.70338842 C13.0077377,10.4420056 10.4129475,11.2885846 8.16188174,12.7074494 C7.29928698,13.2512086 6.53783911,13.9086349 5.7606281,14.5357793 C4.93700335,15.2002276 4.16592245,16.1130759 3.52751476,16.9614104 L2.8759711,17.8571429 C2.93989944,17.4450445 3.23677216,17.0013475 3.43424943,16.6629792 C4.01529677,15.6671846 4.54861678,14.7376592 5.20278763,13.8454377 C8.12510105,9.86050366 12.1061729,7.65737931 17.4332429,6.06516115 C18.9241744,5.61926985 20.5490928,5.48322033 22.1989695,5.18742236 L24.39574,5.00134174 Z" id="Shape" fill="#279F4D" transform="translate(15.714286, 11.428571) rotate(-4.000000) translate(-15.714286, -11.428571) ">
                    <animate attributeName="opacity" from="1" to="0" begin="0.3s" dur="2s" repeatCount="indefinite" />
                </path>
                <path d="M24.4126875,10.0018975 C29.3863238,9.95779469 33.8893244,10.682845 37.435609,12.1395612 C38.5120217,12.5805894 40.9020957,13.950864 39.6424911,15.5897248 C39.1426821,16.2398004 37.8019926,16.5864485 36.5964446,16.358437 C35.0090682,16.0576557 33.757615,15.5037243 32.3465662,14.9912495 C30.2739675,14.2362093 28.0696594,13.6796317 25.7439385,13.1539261 C24.8000931,12.9400274 23.8562477,12.9153298 22.843759,12.7415647 L20.8372295,12.5726509 L20.1997049,12.5726509 C19.663,12.4844452 18.8808954,12.5042915 18.3574902,12.5916151 L17.4089256,12.6291025 L15.0922142,12.8937194 C13.1616213,13.2906448 11.3777535,13.6672829 9.65695172,14.2247425 L7.32222142,15.0873937 L6.42857143,15.4622677 L6.42857143,15.4247803 L7.2866127,14.9374441 L9.65780976,13.7188832 C11.7344025,12.7761018 13.8665411,11.9683125 16.0416368,11.3002845 C17.77059,10.7661994 19.6102305,10.5681777 21.5498328,10.212709 L24.4126875,10.0018975 Z" id="Shape" fill="#125B88">
                
                    <animate attributeName="opacity" from="1" to="0" begin="0.6s" dur="2s" repeatCount="indefinite" />
                </path>
                <path d="M20.2637402,15.7169724 C23.7040736,15.6599685 26.4844107,16.517639 28.8660806,17.5667732 C29.5394233,17.8631069 30.1834902,18.1537837 30.7879487,18.5101673 L31.4285714,18.8617643 L31.355382,18.935739 L30.8611381,19.5832345 C30.3552701,20.2494413 29.7874063,20.89128 29.1390341,21.4147592 C27.4220963,22.8041768 26.0048047,23.7353868 23.5929979,24.4673004 C22.5924555,24.7719018 21.5656509,24.7766884 20.3898844,24.9668467 C19.96138,25.036033 17.8914221,24.9869371 17.4623074,24.9111482 C16.5345239,24.7475337 15.6205171,24.6718185 14.7534378,24.4485892 C12.8160707,23.9503483 11.0298182,23.3711705 9.33569836,22.6357757 L6.82874536,21.396048 L5.38260847,22.6353406 L4.35795655,23.6718556 C4.74542997,22.9569126 5.9358344,21.711528 6.57258238,21.2480988 L6.55406976,21.2111114 L5.67536616,20.7115651 C5.00891189,20.3081859 4.36312286,19.9165555 3.73584646,19.4909838 C3.48140558,19.3169259 3.00696591,19.131119 2.85714286,18.8621995 L5.87728286,20.5087876 C6.08178272,20.6114818 6.82099589,21.0139908 6.93896002,20.897372 L7.61617745,20.3425623 L9.04380172,19.3073527 C10.3913481,18.3978999 11.8981892,17.6538022 13.5096481,17.013269 C14.8688187,16.4723839 16.3399261,16.1999832 17.9388997,15.8849384 L19.5680102,15.7369891 L20.2637402,15.7169724 Z M19.6597122,16.6790777 L18.3784668,16.7530524 C17.5100958,16.9005665 16.6563627,16.9205831 15.8525707,17.1229255 C13.1867536,17.7939189 10.9876267,18.7264343 8.93401758,19.9718189 C8.34936325,20.3264619 7.70443528,20.6619586 7.21191352,21.1188607 L7.23042613,21.1558481 L9.17037637,21.9700041 C10.5936954,22.5439602 12.0940785,23.0108706 13.6728174,23.4129444 C18.7009308,24.6935758 23.7759715,24.0521722 27.1439765,21.6371183 C27.913757,21.0849194 28.6805239,20.4861601 29.2673308,19.7503302 C29.4184455,19.560607 29.6621232,19.4143983 29.7615747,19.1768092 L28.2422484,18.437063 C27.3545037,18.0454326 26.4129433,17.7208145 25.4438293,17.4196943 C24.1953038,17.0328505 22.8697142,16.9601813 21.4171194,16.7165002 L19.6597122,16.6790777 Z" id="Combined-Shape" fill="#125B88">
                <animate attributeName="opacity" from="1" to="0" begin="0.9s" dur="2s" repeatCount="indefinite" />
                </path>
                <path d="M23.0305796,17.8234024 C21.9999277,18.0728582 21.2347444,18.9976159 21.2347444,20.100267 C21.2347444,21.1698333 21.9546982,22.0720213 22.9385365,22.3528665 C22.775414,22.3837707 22.6065204,22.4 22.433534,22.4 C21.0491991,22.4 19.926974,21.360661 19.926974,20.0785714 C19.926974,18.7964818 21.0491991,17.7571429 22.433534,17.7571429 C22.6392803,17.7571429 22.8392367,17.7801011 23.0305796,17.8234024 Z" id="Combined-Shape" fill="#125B88">
                <animate attributeName="opacity" from="1" to="0" begin="0.9s" dur="2s" repeatCount="indefinite" />
                </path>
                <path d="M17.7188469,19.4285714 C17.5996607,19.8825622 17.5461019,20.2230384 17.5581706,20.45 C17.5702393,20.6769616 17.6600078,21.0174378 17.827476,21.4714286 C14.948592,21.0742553 13.4272167,20.8056052 13.2633501,20.6654782 C13.8401493,20.4962683 15.3253149,20.0839661 17.7188469,19.4285714 Z" id="Shape" fill="#125B88">
                <animate attributeName="opacity" from="1" to="0" begin="0.9s" dur="2s" repeatCount="indefinite" />
                </path>
                <circle id="Oval" fill="#125B88" cx="23.8521223" cy="20.1714286" r="1">
                <animate attributeName="opacity" from="1" to="0" begin="0.9s" dur="2s" repeatCount="indefinite" />
                </circle>
            </g>
        </g>
        
    </g>
</svg>