<?xml version="1.0" encoding="UTF-8"?>
<svg width="24px" height="25px" viewBox="0 0 24 25" version="1.1" xmlns="http://www.w3.org/2000/svg" xmlns:xlink="http://www.w3.org/1999/xlink">
    <!-- Generator: Sketch 46.2 (44496) - http://www.bohemiancoding.com/sketch -->
    <title>Group 4</title>
    <desc>Created with Sketch.</desc>
    <defs></defs>
    <g id="Page-1" stroke="none" stroke-width="1" fill="none" fill-rule="evenodd">
        <g id="home" transform="translate(-175.000000, -622.000000)">
            <g id="Tab-Bar" transform="translate(0.000000, 613.000000)">
                <g id="tuan" transform="translate(175.000000, 9.000000)">
                    <g id="Group-4">
                        <path d="M23.982,24.091 L18.982,9.091 C18.914,8.89 18.724,8.75 18.508,8.75 L17.008,8.75 L17.008,11.75 C17.008,12.031 16.785,12.25 16.508,12.25 C16.232,12.25 16.008,12.031 16.008,11.75 L16.008,8.75 L8.008,8.75 L8.008,11.75 C8.008,12.031 7.785,12.25 7.508,12.25 C7.232,12.25 7.008,12.031 7.008,11.75 L7.008,8.75 L5.508,8.75 C5.293,8.75 5.102,8.89 5.034,9.091 L0.034,24.091 C-0.018,24.25 0.009,24.41 0.103,24.551 C0.197,24.68 0.348,24.75 0.508,24.75 L23.508,24.75 C23.669,24.75 23.82,24.68 23.914,24.551 C24.008,24.41 24.033,24.25 23.982,24.091" id="Fill-4319" fill="#3FC6FF"></path>
                        <g id="Fill-2183-+-Fill-2184" transform="translate(5.000000, 13.000000)">
                            <path d="M9.50045413,5 C9.22434151,5 9,5.2258636 9,5.50132861 C9,5.77679362 9.22434151,6 9.50045413,6 C9.77565849,6 10,5.77679362 10,5.50132861 C10,5.2258636 9.77565849,5 9.50045413,5" id="Fill-2183" fill="#3FC6FF"></path>
                            <path d="M12.0003225,5 C11.4488875,5 11,4.55129434 11,4.00095877 C11,3.44934484 11.4488875,3 12.0003225,3 C12.5511125,3 13,3.44934484 13,4.00095877 C13,4.55129434 12.5511125,5 12.0003225,5 L12.0003225,5 Z M14.9505902,5.0077021 C13.5237216,2.77645829 11.6868549,1.76843444 9.49186473,1.76843444 L9.46748984,1.76843444 L8.30562006,0.224937239 C8.21874545,0.118597644 8.07124611,-0.0424848195 7.94499668,0.0103703638 L4.54001197,1.43746031 C4.44688739,1.47647247 4.3781377,1.55764293 4.3556378,1.65706101 C4.3325129,1.75522064 4.35813779,1.85904332 4.42438749,1.93580918 L5.11750938,2.73304153 C4.39126264,3.2269858 3.54939142,3.88893405 3.10126843,4.24885268 C2.48689619,2.94383303 1.7950243,2.28314324 1.04190268,2.28314324 C0.471905244,2.28314324 0.116906838,2.66948946 0.0787820093,2.71227699 C-0.0155925669,2.81924582 -0.0262175192,2.97655291 0.0525321271,3.09547707 C1.62440007,5.47018495 0.685029286,7.63598901 0.644404469,7.72785635 C0.601279663,7.82286983 0.608779629,7.93613094 0.664404379,8.02422291 C0.719404132,8.11294411 0.8156537,8.16957467 0.920028231,8.17209158 L1.03315272,8.17397926 C1.78002437,8.17397926 2.36564674,7.95878316 2.7750199,7.53468324 C3.0856435,7.21377677 3.22751787,6.83623974 3.29251758,6.54553624 C4.72688613,7.14707856 6.19875452,7.53845861 7.67999787,7.71212564 L7.25249979,9.10460803 C7.20187502,9.26883663 7.29187461,9.44376212 7.45437388,9.49724653 L8.9431172,9.98489852 C8.97499205,9.99496617 9.00811691,10 9.03999176,10 C9.15249126,10 9.25999077,9.93833562 9.31499053,9.83388371 L10.4024856,7.79518378 C10.4699853,7.79266687 10.53686,7.79077919 10.5981098,7.78637459 C13.2537228,7.61774138 14.4893423,6.49456874 14.5412171,6.44674738 C14.6049668,6.38759992 14.6412166,6.30705868 14.6412166,6.21896671 C14.6405916,6.13150397 14.6043418,6.05473811 14.5393421,5.99621987 L14.333093,5.82003592 L14.8943405,5.35189001 C15.009965,5.24869656 15.0337148,5.1385816 14.9505902,5.0077021 L14.9505902,5.0077021 Z" id="Fill-2184" fill="#FFFFFF"></path>
                        </g>
                        <path d="M8.008,4.75 C8.008,2.68 9.766,1.75 11.508,1.75 L12.508,1.75 C14.25,1.75 16.008,2.68 16.008,4.75 L16.008,7.75 L17.008,7.75 L17.008,4.75 C17.008,2.4 15.158,0.75 12.508,0.75 L11.508,0.75 C8.859,0.75 7.008,2.4 7.008,4.75 L7.008,7.75 L8.008,7.75 L8.008,4.75" id="Fill-4320" fill="#3FC6FF"></path>
                    </g>
                </g>
            </g>
        </g>
    </g>
</svg>