<?xml version="1.0" encoding="UTF-8"?>
<svg width="21px" height="25px" viewBox="0 0 21 25" version="1.1" xmlns="http://www.w3.org/2000/svg" xmlns:xlink="http://www.w3.org/1999/xlink">
    <!-- Generator: Sketch 46.2 (44496) - http://www.bohemiancoding.com/sketch -->
    <title>Group 3</title>
    <desc>Created with Sketch.</desc>
    <defs></defs>
    <g id="Page-1" stroke="none" stroke-width="1" fill="none" fill-rule="evenodd">
        <g id="home" transform="translate(-103.000000, -622.000000)" fill="#3FC6FF">
            <g id="Tab-Bar" transform="translate(0.000000, 613.000000)">
                <g id="information" transform="translate(103.000000, 9.000000)">
                    <g id="Group-3">
                        <path d="M6.008,15.74 L9.008,15.74 C9.284,15.74 9.508,15.97 9.508,16.24 C9.508,16.52 9.284,16.74 9.008,16.74 L6.008,16.74 C5.731,16.74 5.508,16.52 5.508,16.24 C5.508,15.97 5.731,15.74 6.008,15.74 L6.008,15.74 Z M0.008,24.24 C0.008,24.52 0.231,24.74 0.508,24.74 L14.008,24.74 L14.008,13.74 L0.008,13.74 L0.008,24.24 L0.008,24.24 Z" id="Fill-2339"></path>
                        <path d="M15.008,13.45 L15.008,24.441 L19.86,19.6 C19.955,19.5 20.008,19.381 20.008,19.24 L20.008,8.45 L15.008,13.45" id="Fill-2340"></path>
                        <polyline id="Fill-2341" points="1.008 12.04 0.301 12.74 1.008 12.74 1.008 12.04"></polyline>
                        <polyline id="Fill-2342" points="18.008 7.74 18.008 9.04 19.301 7.74 18.008 7.74"></polyline>
                        <path d="M15.008,12.04 L15.008,3.24 C15.008,2.97 14.784,2.74 14.508,2.74 L4.508,2.74 C4.231,2.74 4.008,2.97 4.008,3.24 L4.008,3.74 L13.508,3.74 C13.784,3.74 14.008,3.97 14.008,4.24 L14.008,13.04 L15.008,12.04" id="Fill-2343"></path>
                        <path d="M13.008,5.24 C13.008,4.97 12.784,4.74 12.508,4.74 L2.508,4.74 C2.231,4.74 2.008,4.97 2.008,5.24 L2.008,12.74 L13.008,12.74 L13.008,5.24" id="Fill-2344"></path>
                        <path d="M16.008,2.24 L16.008,11.04 L17.008,10.04 L17.008,1.24 C17.008,0.97 16.784,0.74 16.508,0.74 L6.508,0.74 C6.231,0.74 6.008,0.97 6.008,1.24 L6.008,1.74 L15.508,1.74 C15.784,1.74 16.008,1.97 16.008,2.24" id="Fill-2345"></path>
                    </g>
                </g>
            </g>
        </g>
    </g>
</svg>