<?xml version="1.0" encoding="UTF-8"?>
<svg width="24px" height="24px" viewBox="0 0 24 24" version="1.1" xmlns="http://www.w3.org/2000/svg" xmlns:xlink="http://www.w3.org/1999/xlink">
    <!-- Generator: Sketch 46.2 (44496) - http://www.bohemiancoding.com/sketch -->
    <title>Fill 1734</title>
    <desc>Created with Sketch.</desc>
    <defs></defs>
    <g id="Page-1" stroke="none" stroke-width="1" fill="none" fill-rule="evenodd">
        <g id="home" transform="translate(-27.000000, -623.000000)" fill="#3FC6FF">
            <g id="Tab-Bar" transform="translate(0.000000, 613.000000)">
                <g id="home" transform="translate(27.000000, 10.000000)">
                    <path d="M14.5206231,24 C14.2446231,24 14.0206231,23.78 14.0206231,23.5 L14.0206231,17 L10.0206231,17 L10.0206231,23.5 C10.0206231,23.78 9.79762306,24 9.52062306,24 L2.52062306,24 C2.24462306,24 2.02062306,23.78 2.02062306,23.5 L2.02062306,11 L0.50062306,11 C0.29162306,11 0.10562306,10.87 0.0316230605,10.67 C-0.0413769395,10.48 0.0146230605,10.261 0.17262306,10.12 L11.6826231,0.12 C11.8706231,-0.04 12.1496231,-0.04 12.3386231,0.12 L15.0206231,2.45 L15.0206231,0.5 C15.0206231,0.221 15.2446231,0 15.5206231,0 L19.5206231,0 C19.7976231,0 20.0206231,0.221 20.0206231,0.5 L20.0206231,6.771 L23.8306231,10.12 C23.9866231,10.261 24.0416231,10.48 23.9676231,10.681 C23.8946231,10.87 23.7086231,11 23.5006231,11 L22.0206231,11 L22.0206231,23.5 C22.0206231,23.78 21.7976231,24 21.5206231,24 L14.5206231,24 Z" id="Fill-1734"></path>
                </g>
            </g>
        </g>
    </g>
</svg>