<?xml version="1.0" encoding="UTF-8"?>
<svg width="25px" height="25px" viewBox="0 0 25 25" version="1.1" xmlns="http://www.w3.org/2000/svg" xmlns:xlink="http://www.w3.org/1999/xlink">
    <!-- Generator: Sketch 46.2 (44496) - http://www.bohemiancoding.com/sketch -->
    <title>Group 5</title>
    <desc>Created with Sketch.</desc>
    <defs></defs>
    <g id="Page-1" stroke="none" stroke-width="1" fill="none" fill-rule="evenodd">
        <g id="home" transform="translate(-250.000000, -622.000000)" fill="#3FC6FF">
            <g id="Tab-Bar" transform="translate(0.000000, 613.000000)">
                <g id="tools" transform="translate(250.000000, 9.000000)">
                    <g id="Group-5">
                        <polyline id="Fill-1461" points="24.015 22.75 2.015 22.75 2.015 0.75 1.015 0.75 1.015 22.75 0.015 22.75 0.015 23.75 1.015 23.75 1.015 24.75 2.015 24.75 2.015 23.75 24.015 23.75 24.015 22.75"></polyline>
                        <path d="M9.515,11.75 C9.239,11.75 9.015,11.971 9.015,12.25 L9.015,21.25 C9.015,21.53 9.239,21.75 9.515,21.75 L11.515,21.75 C11.792,21.75 12.015,21.53 12.015,21.25 L12.015,12.25 C12.015,11.971 11.792,11.75 11.515,11.75 L9.515,11.75" id="Fill-1462"></path>
                        <path d="M4.515,15.75 C4.239,15.75 4.015,15.971 4.015,16.25 L4.015,21.25 C4.015,21.53 4.239,21.75 4.515,21.75 L6.515,21.75 C6.792,21.75 7.015,21.53 7.015,21.25 L7.015,16.25 C7.015,15.971 6.792,15.75 6.515,15.75 L4.515,15.75" id="Fill-1463"></path>
                        <path d="M14.515,15.75 C14.239,15.75 14.015,15.971 14.015,16.25 L14.015,21.25 C14.015,21.53 14.239,21.75 14.515,21.75 L16.515,21.75 C16.792,21.75 17.015,21.53 17.015,21.25 L17.015,16.25 C17.015,15.971 16.792,15.75 16.515,15.75 L14.515,15.75" id="Fill-1464"></path>
                        <path d="M19.515,10.75 C19.239,10.75 19.015,10.97 19.015,11.25 L19.015,21.25 C19.015,21.53 19.239,21.75 19.515,21.75 L21.515,21.75 C21.792,21.75 22.015,21.53 22.015,21.25 L22.015,11.25 C22.015,10.97 21.792,10.75 21.515,10.75 L19.515,10.75" id="Fill-1465"></path>
                        <path d="M3.995,14.71 C4.223,14.71 4.453,14.63 4.64,14.471 L10.936,9.15 L14.245,12.47 C14.432,12.65 14.687,12.761 14.953,12.761 C15.202,12.761 15.475,12.65 15.663,12.46 L21.747,6.331 C22.136,5.94 22.133,5.301 21.741,4.91 C21.349,4.53 20.715,4.53 20.327,4.92 L14.951,10.341 L11.702,7.081 C11.334,6.721 10.745,6.69 10.348,7.03 L3.349,12.94 C2.927,13.301 2.875,13.93 3.231,14.351 C3.429,14.59 3.711,14.71 3.995,14.71" id="Fill-1466"></path>
                    </g>
                </g>
            </g>
        </g>
    </g>
</svg>