<?xml version="1.0" encoding="UTF-8"?>
<svg width="54px" height="54px" viewBox="0 0 54 54" version="1.1" xmlns="http://www.w3.org/2000/svg" xmlns:xlink="http://www.w3.org/1999/xlink">
    <!-- Generator: Sketch 46.2 (44496) - http://www.bohemiancoding.com/sketch -->
    <title>info</title>
    <desc>Created with Sketch.</desc>
    <defs></defs>
    <g id="home" stroke="none" stroke-width="1" fill="none" fill-rule="evenodd">
        <g id="info" fill="#999999">
            <path d="M15.88,4.68 L11.926,7.44 C11.678,7.602 11,8.04 11,9.642 L11,44.88 C11,46.782 12,48.682 14.236,48.682 L37.5,48.682 C38.458,48.682 39.516,48.18 39.956,47.5 L43,43.3 L43,4.68 L15.88,4.68 L15.88,4.68 Z M37.5,50.682 L14.236,50.682 C11.202,50.682 9,48.24 9,44.88 L9,9.642 C9,7.42 9.984,6.32 10.808,5.78 L14.996,2.86 C15.164,2.742 15.364,2.682 15.568,2.682 L44,2.682 C44.552,2.682 45,3.12 45,3.682 L45,43.62 C45,43.82 44.934,44.04 44.81,44.202 L41.602,48.642 C40.808,49.84 39.15,50.682 37.5,50.682 L37.5,50.682 Z" id="Fill-1256"></path>
            <path d="M34,24.682 C33.762,24.682 33.528,24.6 33.342,24.442 L30,21.5 L26.658,24.442 C26.362,24.702 25.942,24.762 25.586,24.6 C25.23,24.42 25,24.08 25,23.682 L25,8.682 C25,8.12 25.448,7.68 26,7.68 C26.552,7.68 27,8.12 27,8.682 L27,21.48 L29.342,19.42 C29.718,19.102 30.282,19.102 30.658,19.42 L33,21.48 L33,8.682 C33,8.12 33.448,7.68 34,7.68 C34.552,7.68 35,8.12 35,8.682 L35,23.682 C35,24.08 34.77,24.42 34.414,24.6 C34.282,24.66 34.14,24.682 34,24.682" id="Fill-1257"></path>
            <path d="M40,49.68 C39.448,49.68 39,49.242 39,48.682 L39,8.682 L11,8.682 C10.448,8.682 10,8.24 10,7.68 C10,7.122 10.448,6.682 11,6.682 L40,6.682 C40.552,6.682 41,7.122 41,7.68 L41,48.682 C41,49.242 40.552,49.68 40,49.68" id="Fill-1258"></path>
        </g>
    </g>
</svg>