<?xml version="1.0" encoding="UTF-8"?>
<svg width="54px" height="54px" viewBox="0 0 54 54" version="1.1" xmlns="http://www.w3.org/2000/svg" xmlns:xlink="http://www.w3.org/1999/xlink">
    <!-- Generator: Sketch 46.2 (44496) - http://www.bohemiancoding.com/sketch -->
    <title>buy_active</title>
    <desc>Created with Sketch.</desc>
    <defs></defs>
    <g id="home" stroke="none" stroke-width="1" fill="none" fill-rule="evenodd">
        <g id="buy_active" fill="#3EC6FF">
            <g id="Group" transform="translate(6.000000, 3.000000)">
                <path d="M12.03,11.5 C11.478,11.5 11.03,11.942 11.03,12.5 C11.03,13.06 11.478,13.5 12.03,13.5 L32.03,13.5 C32.584,13.5 33.03,13.06 33.03,12.5 C33.03,11.942 32.584,11.5 32.03,11.5 L12.03,11.5" id="Fill-1506"></path>
                <path d="M15.99,9.5 L19.99,9.5 L20.03,9.5 C20.582,9.5 21.03,9.06 21.03,8.5 C21.03,8.32 20.988,8.162 20.914,8.02 C19.582,1.86 15.796,-0.36 12.664,-0.36 C10.094,-0.36 7.84,1.042 7.052,3.14 C6.688,4.122 6.77,5.082 7.292,5.92 C9.002,8.702 15.186,9.42 15.99,9.5" id="Fill-1507"></path>
                <path d="M23.83,9.5 L27.83,9.5 L27.932,9.5 C28.632,9.42 34.816,8.702 36.526,5.92 C37.048,5.082 37.132,4.122 36.764,3.14 C35.98,1.042 33.724,-0.36 31.156,-0.36 C27.976,-0.36 24.126,1.92 22.848,8.3 C22.79,8.602 22.866,8.9 23.056,9.14 C23.246,9.36 23.53,9.5 23.83,9.5" id="Fill-1508"></path>
                <path d="M23.072,40.282 L23.072,41.5 C23.072,42.06 22.624,42.5 22.072,42.5 C21.518,42.5 21.072,42.06 21.072,41.5 L21.072,40.282 C18.474,39.942 16.786,38.22 16.786,35.782 C16.786,35.24 17.234,34.782 17.786,34.782 C18.338,34.782 18.786,35.24 18.786,35.782 C18.786,38.162 21.3,38.36 22.072,38.36 C22.842,38.36 25.358,38.162 25.358,35.782 C25.358,34.3 24.778,33.942 22.32,32.74 L20.942,32.06 C18.53,30.86 16.786,30 16.786,27.22 C16.786,24.76 18.474,23.042 21.072,22.68 L21.072,21.5 C21.072,20.942 21.518,20.5 22.072,20.5 C22.624,20.5 23.072,20.942 23.072,21.5 L23.072,22.68 C25.636,23.042 27.3,24.76 27.3,27.22 C27.3,27.76 26.85,28.22 26.3,28.22 C25.746,28.22 25.3,27.76 25.3,27.22 C25.3,24.8 22.828,24.622 22.072,24.622 C20.484,24.622 18.786,25.3 18.786,27.22 C18.786,28.702 19.368,29.042 21.828,30.26 L23.204,30.942 C25.616,32.14 27.358,33 27.358,35.782 C27.358,38.22 25.67,39.942 23.072,40.282 L23.072,40.282 Z M43.948,42.36 C42.456,36.202 32.742,16.86 32.328,16.042 L32.05,15.5 L11.928,15.5 L11.65,16.042 C11.238,16.86 1.524,36.202 0.028,42.36 C-0.084,42.82 -0.024,43.52 6.9388939e-17,43.702 C6.9388939e-17,45.84 2.418,47.5 4.498,47.5 L39.482,47.5 C41.608,47.5 43.978,46 43.974,43.94 C44.01,43.542 44.054,42.8 43.948,42.36 L43.948,42.36 Z" id="Fill-1509"></path>
            </g>
        </g>
    </g>
</svg>