<?xml version="1.0" encoding="UTF-8"?>
<svg width="54px" height="54px" viewBox="0 0 54 54" version="1.1" xmlns="http://www.w3.org/2000/svg" xmlns:xlink="http://www.w3.org/1999/xlink">
    <!-- Generator: Sketch 46.2 (44496) - http://www.bohemiancoding.com/sketch -->
    <title>buy</title>
    <desc>Created with Sketch.</desc>
    <defs></defs>
    <g id="home" stroke="none" stroke-width="1" fill="none" fill-rule="evenodd">
        <g id="buy" fill="#999999">
            <g id="Group" transform="translate(6.000000, 3.000000)">
                <path d="M12.192,18.1291382 C10.712,21.1034624 2.256,38.2566254 0.9296,43.7108865 C0.904,43.8388832 0.9136,44.2884718 0.9488,44.6548624 C0.952,45.7908335 2.5344,46.9284045 3.6496,46.9284045 L38.6336,46.9284045 C39.7856,46.9284045 41.3296,45.9188302 41.3296,44.8788567 C41.368,44.318871 41.3776,43.7428857 41.3504,43.5988893 C40.0272,38.1446283 31.5744,21.0890628 30.0944,18.1291382 L12.192,18.1291382 L12.192,18.1291382 Z M38.6336,48.5267638 L3.6496,48.5267638 C1.7152,48.5267638 -0.648,46.7668086 -0.648,44.7348604 C-0.6736,44.5108661 -0.728,43.7604852 -0.6272,43.3428959 C0.864,37.1990524 10.5696,17.7931467 10.9824,16.9755676 L11.2032,16.527579 L31.08,16.527579 L31.3024,16.9611679 C31.7136,17.7931467 41.4176,37.0886552 42.9072,43.2324987 C43.0048,43.6324885 42.9616,44.4788669 42.928,44.9268555 C42.9296,46.8964053 40.5792,48.5267638 38.6336,48.5267638 L38.6336,48.5267638 Z" id="Fill-2130"></path>
                <path d="M30.4,14.9276197 L11.2,14.9276197 C10.7584,14.9276197 10.4,14.5756287 10.4,14.1276401 C10.4,13.6796515 10.7584,13.3292604 11.2,13.3292604 L30.4,13.3292604 C30.8416,13.3292604 31.2,13.6796515 31.2,14.1276401 C31.2,14.5756287 30.8416,14.9276197 30.4,14.9276197" id="Fill-2131"></path>
                <path d="M11.816,2.27194212 C10.0208,2.27194212 8.4064,3.23351763 7.8896,4.60788262 C7.72,5.0558712 7.7472,5.43986142 7.976,5.80785205 C8.9152,7.32941329 12.9216,8.28938883 15.2256,8.52938272 L18.136,8.52938272 C16.6256,2.7359303 12.952,2.27194212 11.816,2.27194212 L11.816,2.27194212 Z M19.1728,10.127742 L19.1408,10.127742 L15.1408,10.127742 C14.3664,10.047744 8.2736,9.34536193 6.6144,6.65583045 C6.1264,5.85745078 6.048,4.96147361 6.392,4.04789688 C7.1488,2.0335482 9.3296,0.673582841 11.816,0.673582841 C14.8784,0.673582841 18.584,2.84792745 19.88,8.96137171 C19.9392,9.07336886 19.9728,9.19976564 19.9728,9.32776238 C19.9728,9.77575097 19.6144,10.127742 19.1728,10.127742 L19.1728,10.127742 Z" id="Fill-2132"></path>
                <path d="M23.9856,8.52938272 L26.9376,8.52938272 C29.248,8.27178928 33.2112,7.32941329 34.1456,5.80785205 C34.3744,5.43986142 34.4016,5.0558712 34.232,4.60788262 C33.7152,3.23351763 32.1008,2.27194212 30.3056,2.27194212 C29.1696,2.27194212 25.4976,2.7359303 23.9856,8.52938272 L23.9856,8.52938272 Z M26.9808,10.127742 L22.9808,10.127742 C22.7408,10.127742 22.5152,10.0157449 22.3632,9.83974934 C22.2112,9.64775423 22.1504,9.40776034 22.1968,9.16776646 C23.4512,2.89752619 27.208,0.673582841 30.3056,0.673582841 C32.792,0.673582841 34.9728,2.0335482 35.7312,4.04789688 C36.0736,4.96147361 35.9968,5.85745078 35.5072,6.65583045 C33.848,9.34536193 27.7552,10.047744 27.0656,10.127742 L26.9808,10.127742 L26.9808,10.127742 Z" id="Fill-2133"></path>
                <path d="M21.224,40.9909558 C18.1808,40.9909558 16.1376,39.2326006 16.1376,36.6086674 C16.1376,36.1750785 16.496,35.8070878 16.9376,35.8070878 C17.3792,35.8070878 17.7376,36.1750785 17.7376,36.6086674 C17.7376,38.6550153 19.5376,39.3925965 21.224,39.3925965 C22.9088,39.3925965 24.7088,38.6550153 24.7088,36.6086674 C24.7088,35.0071082 24.056,34.624718 21.56,33.3927493 L20.1808,32.7031669 C17.7456,31.5031975 16.1376,30.7032179 16.1376,28.0472855 C16.1376,25.4073528 18.1808,23.6473976 21.224,23.6473976 C24.2304,23.6473976 26.2496,25.4073528 26.2496,28.0472855 C26.2496,28.4808745 25.8928,28.8472651 25.4496,28.8472651 C25.008,28.8472651 24.6496,28.4808745 24.6496,28.0472855 C24.6496,25.4393519 22.0272,25.2473568 21.224,25.2473568 C19.5376,25.2473568 17.7376,25.9833381 17.7376,28.0472855 C17.7376,29.6472448 18.3904,30.0328349 20.888,31.2648035 L22.2672,31.9511861 C24.7008,33.1511555 26.3088,33.9511351 26.3088,36.6086674 C26.3088,39.2326006 24.2656,40.9909558 21.224,40.9909558" id="Fill-2134"></path>
                <path d="M21.224,25.1353597 C20.7808,25.1353597 20.424,24.7673691 20.424,24.3353801 L20.424,22.335431 C20.424,21.8890424 20.7808,21.5354514 21.224,21.5354514 C21.6656,21.5354514 22.024,21.8890424 22.024,22.335431 L22.024,24.3353801 C22.024,24.7673691 21.6656,25.1353597 21.224,25.1353597" id="Fill-2135"></path>
                <path d="M21.224,43.1349012 C20.7808,43.1349012 20.424,42.7669105 20.424,42.3349215 L20.424,40.3349725 C20.424,39.8885839 20.7808,39.5349929 21.224,39.5349929 C21.6656,39.5349929 22.024,39.8885839 22.024,40.3349725 L22.024,42.3349215 C22.024,42.7669105 21.6656,43.1349012 21.224,43.1349012" id="Fill-2136"></path>
            </g>
        </g>
    </g>
</svg>