<?xml version="1.0" encoding="UTF-8"?>
<svg width="54px" height="54px" viewBox="0 0 54 54" version="1.1" xmlns="http://www.w3.org/2000/svg" xmlns:xlink="http://www.w3.org/1999/xlink">
    <!-- Generator: Sketch 46.2 (44496) - http://www.bohemiancoding.com/sketch -->
    <title>home</title>
    <desc>Created with Sketch.</desc>
    <defs></defs>
    <g id="home" stroke="none" stroke-width="1" fill="none" fill-rule="evenodd">
        <g id="Fill-11183" fill="#999999">
            <g transform="translate(2.000000, 2.000000)">
                <path d="M31,46.682 L43,46.682 L43,21.68 C43,21.122 43.448,20.68 44,20.68 L44.888,20.68 L39.312,15.402 C39.114,15.22 39,14.96 39,14.68 L39,2.68 L33,2.68 L33,7.76 C33,8.162 32.776,8.522 32.424,8.68 C32.074,8.84 31.658,8.782 31.36,8.542 L24.71,3 L4.102,20.68 L6,20.68 C6.552,20.68 7,21.122 7,21.68 L7,46.682 L19,46.682 L19,33.68 C19,33.122 19.448,32.68 20,32.68 L30,32.68 C30.552,32.68 31,33.122 31,33.68 L31,46.682 L31,46.682 Z M44,48.68 L30,48.68 C29.448,48.68 29,48.242 29,47.68 L29,34.682 L21,34.682 L21,47.68 C21,48.242 20.552,48.68 20,48.68 L6,48.68 C5.448,48.68 5,48.242 5,47.68 L5,22.682 L1.402,22.682 C0.984,22.682 0.61,22.42 0.464,22.022 C0.318,21.64 0.432,21.202 0.75,20.92 L24.05,0.92 C24.42,0.602 24.966,0.602 25.342,0.92 L31,5.64 L31,1.682 C31,1.122 31.448,0.68 32,0.68 L40,0.68 C40.552,0.68 41,1.122 41,1.682 L41,14.26 L48.088,20.96 C48.386,21.242 48.482,21.662 48.33,22.06 C48.178,22.442 47.81,22.682 47.402,22.682 L45,22.682 L45,47.68 C45,48.242 44.552,48.68 44,48.68 L44,48.68 Z"></path>
            </g>
        </g>
    </g>
</svg>