<?xml version="1.0" encoding="UTF-8"?>
<svg width="54px" height="54px" viewBox="0 0 54 54" version="1.1" xmlns="http://www.w3.org/2000/svg" xmlns:xlink="http://www.w3.org/1999/xlink">
    <!-- Generator: Sketch 46.2 (44496) - http://www.bohemiancoding.com/sketch -->
    <title>personal</title>
    <desc>Created with Sketch.</desc>
    <defs></defs>
    <g id="home" stroke="none" stroke-width="1" fill="none" fill-rule="evenodd">
        <g id="personal" fill="#999999">
            <g id="Group" transform="translate(3.000000, 3.000000)">
                <path d="M11.048,43.6484881 C10.824,43.6484881 10.6,43.5508906 10.44,43.374895 C10.1536,43.0389036 10.192,42.5285166 10.528,42.238924 C11.8592,41.1029529 13.7584,40.5269676 16.1744,40.5269676 L18.0032,40.5269676 L20.3328,37.3126495 C20.592,36.9430589 21.0912,36.8646609 21.4496,37.1190544 C21.808,37.3926474 21.888,37.8870348 21.6304,38.2390259 L19.0608,41.7925354 C18.9104,41.9989301 18.6688,42.1269268 18.4128,42.1269268 L16.1744,42.1269268 C14.152,42.1269268 12.6016,42.5749154 11.568,43.454893 C11.4176,43.5988893 11.2336,43.6484881 11.048,43.6484881" id="Fill-6808"></path>
                <path d="M37.9152,43.7908845 C37.7168,43.7908845 37.5184,43.728486 37.3632,43.5828897 C36.3536,42.6069146 34.7824,42.1269268 32.6944,42.1269268 L30.4576,42.1269268 C30.2048,42.1269268 29.9664,41.9989301 29.8144,41.806935 L27.1824,38.2566254 C26.92,37.8870348 26.9936,37.3926474 27.3488,37.135054 C27.704,36.8646609 28.2048,36.9430589 28.4672,37.2966499 L30.8608,40.5269676 L32.6944,40.5269676 C35.208,40.5269676 37.1504,41.1669513 38.4672,42.4165195 C38.7872,42.7205117 38.8,43.2308987 38.4944,43.5508906 C38.3376,43.7124864 38.1264,43.7908845 37.9152,43.7908845" id="Fill-6809"></path>
                <path d="M27.7392,12.2396882 C26.368,12.2396882 24.8768,12.7356756 23.304,13.7132507 C23.1776,13.7916487 23.032,13.8252478 22.8832,13.8252478 C17.4096,13.8252478 16.9744,15.6652009 16.9744,18.0811394 C16.9744,18.175537 16.9536,18.2891341 16.9136,18.3835317 C16.896,18.4331304 15.0816,22.9594151 17.2288,27.8392908 C17.272,27.951288 17.296,28.0632851 17.296,28.1752822 C17.296,32.2711779 20.6288,37.4550459 24.3728,37.4550459 C28.1184,37.4550459 31.4496,32.2711779 31.4496,28.1752822 C31.4496,27.9352884 31.5568,27.712894 31.7392,27.5512981 C33.3472,26.223332 32.6304,21.1674608 31.8016,18.3035337 C31.7536,18.1275382 31.7616,17.9515427 31.8224,17.7931467 C32.2976,16.5435786 32.1248,15.1356144 31.3616,14.0332425 C30.5648,12.8812719 29.2784,12.2396882 27.7392,12.2396882 L27.7392,12.2396882 Z M24.3728,39.0566051 C19.7536,39.0566051 15.7872,33.2151539 15.6976,28.3352782 C13.5712,23.3290057 15.04,18.8155207 15.376,17.9195435 C15.4064,14.9756185 16.3712,12.2892869 22.656,12.2252886 C26.6512,9.8253497 30.7312,10.3037375 32.6784,13.1196658 C33.688,14.5756287 33.9536,16.4331814 33.408,18.097139 C33.824,19.6330999 35.384,26.0153373 33.0432,28.5128736 C32.8608,33.3607502 28.936,39.0566051 24.3728,39.0566051 L24.3728,39.0566051 Z" id="Fill-6810"></path>
                <path d="M24.3808,2.12794579 C12.1392,2.12794579 2.1808,12.0812922 2.1808,24.3353801 C2.1808,36.5750683 12.1392,46.5268148 24.3808,46.5268148 C36.6224,46.5268148 46.5808,36.5750683 46.5808,24.3353801 C46.5808,12.0812922 36.6224,2.12794579 24.3808,2.12794579 L24.3808,2.12794579 Z M24.3808,48.126774 C11.2576,48.126774 0.5808,37.4550459 0.5808,24.3353801 C0.5808,11.1997147 11.2576,0.529586509 24.3808,0.529586509 C37.504,0.529586509 48.1808,11.1997147 48.1808,24.3353801 C48.1808,37.4550459 37.504,48.126774 24.3808,48.126774 L24.3808,48.126774 Z" id="Fill-6811"></path>
            </g>
        </g>
    </g>
</svg>