<?xml version="1.0" encoding="UTF-8"?>
<svg width="48px" height="48px" viewBox="0 0 48 48" version="1.1" xmlns="http://www.w3.org/2000/svg" xmlns:xlink="http://www.w3.org/1999/xlink">
    <!-- Generator: Sketch 46.2 (44496) - http://www.bohemiancoding.com/sketch -->
    <title>other_active</title>
    <desc>Created with Sketch.</desc>
    <defs></defs>
    <g id="Page-1" stroke="none" stroke-width="1" fill="none" fill-rule="evenodd">
        <g id="other_active" fill-rule="nonzero" fill="#FF5000">
            <path d="M19.1436236,31.3140735 C19.1436236,31.3140735 20.3602972,29.6207181 21.0685101,28.9261246 C21.7767231,28.2315312 22.3396616,28 22.3396616,28 C22.3396616,28 22.2261659,29.1985142 21.8493603,30.2699133 C21.4725547,31.3413124 20.836979,32.4081717 20.836979,32.4081717 C20.836979,32.4081717 22.8889806,32.6987206 23.8605035,33.1300041 C24.8274866,33.5658275 25.4222039,33.9698721 25.4222039,33.9698721 C25.4222039,33.9698721 23.7878663,34.3012794 22.5575733,34.2740404 C21.3272802,34.2468015 20.5782088,34.0697482 20.5782088,34.0697482 C20.5782088,34.0697482 20.7961205,35.5860504 20.8959967,36.7754849 C20.9958729,37.9603797 20.7371028,39 20.7371028,39 C20.7371028,39 19.8836154,37.7152291 19.420553,36.6302105 C18.9574907,35.5451919 18.8576145,34.2422617 18.8576145,34.2422617 C18.8576145,34.2422617 17.3685514,35.4997936 16.2245151,35.9492365 C15.0804787,36.3986793 14,36.4713165 14,36.4713165 C14,36.4713165 14.6219563,35.4725547 15.4300454,34.5782088 C16.2381345,33.683863 17.640941,32.9166323 17.640941,32.9166323 C17.640941,32.9166323 15.5889393,31.0961618 15.1848948,30.2426744 C14.7808502,29.389187 14.576558,28.5084606 14.576558,28.5084606 C14.576558,28.5084606 17.3957903,28.4948411 19.1436236,31.3140735 Z" id="Shape"></path>
            <g id="Group" transform="translate(32.000000, 20.000000)">
                <path d="M8.13236097,3.26813309 C8.27419496,2.84072474 8.07820074,2.75511203 7.9551433,2.3960628 C7.83223547,2.03694078 7.9024792,1.62656761 7.9551433,1.18183287 C8.0078822,0.737243734 7.86739474,0.583490294 7.46328758,0.292727398 C7.05925522,0.00211010114 6.77805588,-0.186077702 6.61991398,0.292727398 C6.46177208,0.771605298 6.531941,1.14768971 6.7955607,1.50681173 C7.05918041,1.86593376 6.86587924,2.13951587 6.74289661,2.46434913 C6.61991398,2.78925519 6.7955607,3.01165896 7.0063667,3.42210493 C7.2172475,3.8324781 7.0591056,3.98630434 6.72531697,4.44800146 C6.39152835,4.90969858 7.11184451,5.11484876 6.72531697,5.3713957 C6.33878944,5.62794263 5.9521123,5.850128 6.13995256,6.41447301 C6.32771801,6.97867242 6.32120981,7.38911839 5.9521123,7.93628262 C5.58308959,8.48359245 5.5304255,8.9111464 5.7413063,10.0053293 C5.9521123,11.0996577 5.40751767,11.0141906 5.16140279,11.5785356 C4.91551234,12.142735 4.77495007,12.6557561 4.98732701,13.510864 C5.19977876,14.3658263 5.0560746,14.3486455 4.634313,15.3575797 C4.21255139,16.3665138 5.42913688,17.2727273 5.42913688,17.2727273 C5.38926478,16.4176194 5.20538928,14.9986032 5.65340813,12.7414416 C6.10150179,10.48428 6.91854334,6.79070301 7.23482714,4.64164926 C7.50839617,2.7828488 7.01324894,0.567401511 6.87448204,0.00276530046 C6.87762393,0.00232850091 6.88076583,0.00181890144 6.88390772,0.00160050167 C7.79954483,2.82143276 7.36207377,5.40073407 7.07676004,6.68812792 C6.7868831,7.99619696 6.04883769,11.5871988 5.75896074,13.7931093 C5.53192164,15.5200691 5.62812338,16.6754039 5.68048825,17.0958235 C5.5391031,17.1981074 5.42921169,17.2727273 5.42921169,17.2727273 C5.42921169,17.2727273 6.28029041,16.6968071 6.30003944,16.5391952 C6.31971367,16.3815834 6.32128462,15.3404717 6.36384977,14.5881573 C6.40626532,13.8357701 7.23916594,12.4477667 7.27006121,11.9034417 C7.30118091,11.358971 7.16465822,10.9801202 6.98901149,10.5867823 C6.81328995,10.1934443 7.23490195,9.88564618 7.49852165,9.3897331 C7.76206655,8.89389282 7.49852165,8.68866983 7.35803419,8.05596569 C7.21754673,7.42333435 7.48101682,7.57730619 7.78592997,7.11560908 C8.09091792,6.65383916 7.81488026,6.31182511 7.78592997,5.96988387 C7.75712929,5.62794263 7.97294735,5.33725253 8.13258539,4.99516569 C8.29207382,4.65322445 7.95536772,4.48214462 7.852957,4.20856251 C7.74994782,3.9349804 7.99045218,3.69554145 8.13236097,3.26813309 Z" id="Shape"></path>
                <path d="M9.09090909,5.45454545 C9.13079545,5.4919697 9.17443182,5.53267677 9.21977273,5.57502525 C9.17443182,5.5320202 9.13147727,5.49229798 9.09090909,5.45454545 Z" id="Shape"></path>
                <path d="M6.92228154,15.5705919 C7.49162252,13.1881428 9.72920863,9.41301878 9.94506182,8.24020715 C10.1075994,7.35763362 9.87001878,6.10165161 9.7424122,5.53381479 C9.6856703,5.48341322 9.65065579,5.45454545 9.65065579,5.45454545 C9.65065579,5.45454545 9.80767791,5.93109771 9.51318831,6.24255753 C9.21878228,6.55417339 9.08139837,6.97564282 9.29733513,7.45219507 C9.51318831,7.92859128 9.39535905,8.13027556 9.39535905,8.13027556 C9.39535905,8.13027556 9.02256731,8.46007032 9.17950586,8.95480146 C9.33652798,9.44968865 9.06184373,9.52295036 8.5906938,9.90782794 C8.11954387,10.2927055 8.21765136,10.8057716 8.19818028,11.3556636 C8.17837494,11.9054776 8.15873673,11.8870646 7.39326434,12.326869 C6.62787551,12.7666733 7.216604,13.2432256 7.216604,13.6830299 C7.216604,14.1229903 7.15777294,14.1595042 6.41193876,14.9107684 C5.66602101,15.6621886 6.17636379,16.2302595 6.13708737,16.9634228 C6.09781095,17.6965081 6.19031946,17.5150312 5.60952982,18.4909179 C5.07094144,19.3960395 6.09697528,19.9276745 6.24864912,20 C6.29227102,19.3917483 6.45530996,17.5248619 6.92228154,15.5705919 Z" id="Shape"></path>
                <path d="M9.04251266,5.45454545 C9.77452452,7.77908934 9.00215816,9.35917557 8.4474331,10.4337348 C7.86626004,11.5598528 6.86430815,13.7567574 6.36324689,15.5660284 C5.95535077,17.0396962 5.79981958,19.1865354 5.75622307,19.9324078 C5.6618635,19.9625099 5.56229965,19.9862458 5.45454545,20 C6.42962279,19.874247 6.84417356,19.0552021 6.94450525,18.0212768 C7.044581,16.9874301 6.60375288,16.6921464 6.74409781,16.3229042 C6.88444274,15.9537406 7.14474206,16.0460904 7.3122175,15.3259974 C7.47969294,14.6060616 7.42543193,14.2737593 8.2069271,13.5351963 C8.98842228,12.796712 8.26707493,12.0030534 8.64766991,11.7629438 C9.02869146,11.5229914 9.38915185,10.8769355 9.26894151,10.3968735 C9.14881648,9.91689005 9.30904006,9.65846767 9.56951001,9.23381557 C9.8301506,8.80932065 9.60952325,8.53234971 9.54954605,8.25545736 C9.48939822,7.97856501 9.7298189,7.8676666 9.9703249,7.1293394 C10.1627979,6.53861476 9.36842004,5.74778569 9.04251266,5.45454545 Z" id="Shape"></path>
                <path d="M5.52102273,19.1224242 C5.52102273,19.1224242 5.49477273,19.1102778 5.45454545,19.0909091 C5.49681818,19.1115909 5.52102273,19.1224242 5.52102273,19.1224242 Z" id="Shape"></path>
                <path d="M0.909090909,4.6426738 C0.940584416,4.60802139 0.968831169,4.5768984 0.997077922,4.54545455 C0.969155844,4.57593583 0.93961039,4.6086631 0.909090909,4.6426738 Z" id="Shape"></path>
                <path d="M4.22611873,13.382137 C3.59705146,11.8021431 2.44709031,9.90678121 1.79125243,8.93923208 C1.16537413,8.01583448 0.287398973,6.65575727 0.828937274,4.54545455 C0.531607319,4.82522103 -0.187674376,5.57502606 0.04587608,6.08914603 C0.33791905,6.73207633 0.582295237,6.81638472 0.544279298,7.06622629 C0.506431201,7.31592769 0.311064524,7.57523029 0.598911475,7.93769329 C0.886842345,8.30001612 1.06366261,8.5205635 0.982175913,8.95443983 C0.900773131,9.38838625 1.30359102,9.94203235 1.6956671,10.1330753 C2.08732358,10.3243285 1.43987774,11.0724516 2.26288504,11.683775 C3.0857245,12.2948881 3.05777901,12.5935066 3.27681124,13.2241025 C3.49575954,13.8547685 3.74424783,13.7574249 3.90990669,14.0775585 C4.07581731,14.3976921 3.66569834,14.6862188 3.84243469,15.5998751 C4.01933888,16.5136014 4.48836996,17.2178532 5.45454545,17.2727273 C5.34788263,17.2667002 5.24843697,17.2513523 5.15343908,17.2302577 C5.05407734,16.5692463 4.73836881,14.6688385 4.22611873,13.382137 Z" id="Shape"></path>
                <path d="M5.29066716,15.8855039 C4.74316551,15.0530448 4.83200064,15.2088095 4.75247605,14.5599055 C4.67281144,13.9110015 5.062944,13.3763852 4.39174519,12.7530483 C3.72054639,12.1297808 3.66909342,12.1008094 3.64095179,11.7100775 C3.61288017,11.319415 4.07441685,10.8612916 3.40671825,10.5159273 C2.73894964,10.1704936 2.72375876,10.1879321 2.67209578,9.70097614 C2.6206428,9.21367284 2.67006566,8.75214507 2.25158147,8.43811443 C1.83344729,8.12415326 1.59921375,8.07538125 1.69882951,7.62663702 C1.79844527,7.17782332 1.46578604,6.90693716 1.46578604,6.90693716 C1.46578604,6.90693716 1.3544796,6.73470664 1.50456828,6.29874596 C1.65444694,5.86292424 1.51268875,5.49650884 1.24681338,5.23722514 C0.980938008,4.97801091 1.08174384,4.54545455 1.08174384,4.54545455 C1.08174384,4.54545455 1.05423224,4.57296696 1.0101997,4.62132212 C0.939775628,5.13328933 0.821398784,6.26296592 1.0136299,7.03706534 C1.26886465,8.06607149 3.37976669,11.2866919 4.00763299,13.3692986 C4.52244275,15.0774308 4.77802752,16.7260916 4.85321187,17.2637649 C4.84362132,17.2694619 4.83788098,17.2727273 4.83788098,17.2727273 C4.83788098,17.2727273 5.83830882,16.717824 5.29066716,15.8855039 Z" id="Shape"></path>
                <path d="M9.55415418,11.4697711 C9.1681449,11.7150081 8.96351245,12.731544 8.96351245,13.1872506 C8.96351245,13.6429571 8.74411183,13.9056524 8.32534098,14.273769 C7.90673989,14.6417364 8.0662191,15.07991 8.0662191,15.7107218 C8.0662191,16.3416829 7.36838085,16.4468804 6.43153597,16.9374289 C5.49460622,17.4280521 5.45454545,18.1818182 5.45454545,18.1818182 C5.45454545,18.1818182 5.45641269,18.1518257 5.46617326,18.1012414 C9.54422387,16.7239004 10,10.9090909 10,10.9090909 C10,10.9090909 9.94016347,11.2243849 9.55415418,11.4697711 Z" id="Shape"></path>
                <path d="M5.45454545,18.1818182 C5.56659211,18.2171364 5.67651232,18.2445 5.78512397,18.2670909 C5.67667589,18.2451364 5.56642853,18.2171364 5.45454545,18.1818182 Z" id="Shape"></path>
                <path d="M5.45454545,18.1818182 C5.56655241,18.2028182 5.6766282,18.2174545 5.78512397,18.2273182 C5.6766282,18.2177727 5.56637685,18.2028182 5.45454545,18.1818182 Z" id="Shape"></path>
                <path d="M9.95750019,12.4267439 C10.1543548,11.6766063 9.6034801,10.9090909 9.6034801,10.9090909 C9.58388674,13.1244514 8.91503326,14.4850366 7.85314044,16.1945128 C7.14233709,17.3386193 6.07994188,17.9195843 5.45454545,18.1792102 C6.93166667,18.2404035 7.74361862,17.2128166 8.12845219,16.3515062 C8.54150355,15.4271459 8.52191019,15.9328817 9.16363441,15.3572638 C9.80544236,14.7815716 9.30849126,14.5375411 9.38719961,13.8396108 C9.46590795,13.1418291 9.76089679,13.1768073 9.95750019,12.4267439 Z" id="Shape"></path>
                <path d="M4.88636364,17.2727273 C4.77064684,17.3080455 4.65729162,17.3366818 4.54545455,17.3586364 C4.6574603,17.3363636 4.77081553,17.3083636 4.88636364,17.2727273 Z" id="Shape"></path>
                <path d="M5.44300231,18.1013168 C5.45267818,18.1519752 5.45454545,18.1818182 5.45454545,18.1818182 C5.45454545,18.1818182 5.41456881,17.428209 4.47762157,16.9375909 C3.54067432,16.4470474 2.84282305,16.341851 2.84282305,15.710971 C2.84282305,15.080091 3.00239011,14.6419965 2.58369632,14.2739583 C2.16500253,13.9058455 1.94559782,13.6431529 1.94559782,13.187451 C1.94559782,12.7317492 1.74104642,11.7152982 1.35486018,11.4699892 C0.968843682,11.2246055 0.909090909,10.9090909 0.909090909,10.9090909 C0.909090909,10.9090909 1.36487555,16.7240646 5.44300231,18.1013168 Z" id="Shape"></path>
                <path d="M2.14685682,16.1945284 C1.08471159,14.4850713 0.416024813,13.1245011 0.396598901,10.9090909 C0.396598901,10.9090909 -0.154360152,11.676672 0.0424946707,12.4268013 C0.239098296,13.1769307 0.534003735,13.1418786 0.612879636,13.8397268 C0.69150434,14.5374266 0.194720136,14.7816029 0.836361355,15.3572888 C1.47817004,15.9329003 1.45857666,15.4270216 1.87154476,16.3515202 C2.25637877,17.2129695 3.06833165,18.2404707 4.54545455,18.1792038 C3.91997367,17.9195066 2.85749352,17.3385481 2.14685682,16.1945284 Z" id="Shape"></path>
                <path d="M4.54545455,17.3172727 C4.65728141,17.3083636 4.77091778,17.2937273 4.88636364,17.2727273 C4.77091778,17.2934091 4.65728141,17.3083636 4.54545455,17.3172727 Z" id="Shape"></path>
                <path d="M5.17848762,18.1189633 C4.88805571,17.4331687 4.08027486,15.3711105 3.87776255,13.2205232 C3.63160332,10.604565 3.11456726,4.79436911 4.29326869,1.88369764 C4.15458413,2.26535784 3.50738952,4.39048674 3.87776255,9.99996404 C4.14324219,14.0216716 4.76814402,16.3252969 5.1811471,17.4588429 C5.13734375,17.222238 5.12686223,16.9426271 5.19937243,16.6423043 C5.40516999,15.7906706 5.61957178,15.8578405 5.26523391,14.6631657 C4.91081781,13.4685628 4.53919325,13.1950648 4.78715155,11.5310637 C5.03526628,9.86699066 4.48404795,10.1544404 4.56680501,9.24232502 C4.64948385,8.3300658 4.75969623,8.3300658 4.53919325,7.26591919 C4.31869028,6.20177258 4.12579906,6.32848923 4.23608966,5.69497788 C4.34630204,5.06146653 4.01558669,4.60544479 4.06971512,4.30131044 C4.12376534,3.99731992 4.29115674,3.59185539 4.29115674,2.95841595 C4.29115674,2.3249046 4.31869028,1.81818182 4.31869028,1.81818182 C4.31869028,1.81818182 3.93290785,2.19833178 3.6021925,2.88240034 C3.27147715,3.56661274 3.6573378,3.97193344 3.18887653,4.65607392 C2.72033704,5.3402144 3.40930128,5.87232366 3.16126477,6.55646414 C2.91315004,7.24067654 2.88569472,7.44333689 3.16126477,8.27950859 C3.4367566,9.11568029 3.21641007,9.41974272 2.8304712,10.3066874 C2.44461055,11.1934163 3.27147715,12.1563046 3.18347933,12.6377848 C3.09540329,13.119193 3.13365301,13.3725544 3.18347933,13.9299782 C3.23330565,14.487474 3.68487134,14.9436395 3.24386539,16.1597454 C2.80293766,17.3759952 4.91918738,18.0602076 4.91918738,18.0602076 L5.45452699,18.1818182 L5.17848762,18.1189633 Z" id="Shape"></path>
                <path d="M4.54545455,2.11396104 C4.58181818,2.01688312 4.61396104,1.91428571 4.65097403,1.81818182 C4.6512987,1.81818182 4.61233766,1.91428571 4.54545455,2.11396104 Z" id="Shape"></path>
            </g>
            <path d="M29.8654285,18.0124348 C29.7757142,17.9675776 29.6635712,18.0124348 29.6299284,18.1133634 L29.6299284,18.1133634 C29.5065712,18.404935 29.2934996,18.6516494 29.0467852,18.864721 C28.8000708,19.0777925 28.5197135,19.2572212 28.2281419,19.4142213 C27.9365703,19.5712214 27.6337844,19.7057929 27.3197842,19.8291501 C27.1627841,19.8852215 27.005784,19.941293 26.8487839,19.9973645 C26.7702839,20.0197931 26.6917838,20.0422216 26.6132838,20.0758645 L26.5123552,20.1095074 L26.4899266,20.1095074 C26.4562837,20.1095074 26.4338551,20.1095074 26.4002123,20.1095074 C26.3329265,20.1095074 26.276855,20.0982931 26.2095693,20.0982931 C26.1422835,20.0870788 26.0749978,20.0870788 26.007712,20.0758645 C25.9404263,20.0646502 25.8731405,20.0646502 25.8058548,20.0534359 C25.5254975,20.0197931 25.2451402,19.9637216 24.9647829,19.9188644 C24.85264,19.8964358 24.740497,19.8740073 24.6283541,19.8515787 C24.661997,19.75065 24.6956399,19.6609357 24.7180685,19.5600071 L24.7517113,19.6833643 C30.3140002,17.7096489 27.8244273,13.2800035 27.8244273,13.2800035 C28.4748563,7.43735739 23.585425,7 23.585425,7 C25.7049262,8.60364376 24.3816397,10.3082162 24.3816397,10.3082162 C24.3816397,10.3082162 23.4059963,9.89328735 22.6994959,8.55878659 C22.6994959,8.55878659 22.5649244,10.8465022 23.5966392,12.3267887 C24.5386398,13.6949323 26.2207836,13.9528611 26.2207836,13.9528611 C27.8804988,16.3975767 25.7722119,17.8217918 24.8414257,18.3040064 C24.6283541,16.7564341 22.9910675,15.4555762 20.7482091,14.9060759 L20.8715663,14.1210754 C21.1967808,14.0201468 21.4322809,13.7173609 21.4322809,13.3697179 C21.4322809,12.9323605 21.0734235,12.5847174 20.6472804,12.5847174 C20.2099231,12.5847174 19.86228,12.9435748 19.86228,13.3697179 C19.86228,13.6725038 20.0304944,13.9304325 20.2772088,14.065004 L20.1650659,14.7827187 C19.6043513,14.68179 19.0099938,14.6257186 18.3932077,14.6257186 C17.6306359,14.6257186 16.8904926,14.7042186 16.2176351,14.8612187 L16.0942779,14.0537897 C16.3409923,13.9192182 16.5092067,13.6612895 16.5092067,13.3585036 C16.5092067,12.9211462 16.1503493,12.5735031 15.7242062,12.5735031 C15.2980631,12.5735031 14.9392058,12.9323605 14.9392058,13.3585036 C14.9392058,13.7173609 15.1747059,14.0201468 15.4999204,14.1098612 L15.6457062,15.0070045 C13.6495622,15.5901477 12.2029185,16.7900769 11.9674184,18.214292 C10.9581321,17.6087203 9.39934553,16.2405766 10.8908464,14.0313611 C10.8908464,14.0313611 12.5729902,13.7734324 13.5149907,12.4052888 C14.5354913,10.9250022 14.4121341,8.63728664 14.4121341,8.63728664 C13.7056337,9.97178739 12.7299903,10.3867162 12.7299903,10.3867162 C12.7299903,10.3867162 11.4067038,8.6933581 13.526205,7.07850004 C13.526205,7.07850004 8.62555938,7.50464314 9.28720261,13.3585036 C9.28720261,13.3585036 6.87612982,17.6423631 12.1132042,19.67215 L11.8664898,19.7282215 C11.5861325,19.7955072 11.2945609,19.8515787 11.0142036,19.9076501 C10.7338463,19.9637216 10.4422747,20.0085788 10.1731317,20.0422216 C10.1058459,20.0534359 10.0385602,20.0646502 9.97127442,20.0646502 C9.90398867,20.0758645 9.83670292,20.0758645 9.76941717,20.0870788 C9.70213142,20.0870788 9.63484566,20.0982931 9.5787742,20.0982931 C9.54513133,20.0982931 9.52270274,20.0982931 9.48905987,20.0982931 L9.46663128,20.0982931 L9.36570265,20.0646502 C9.28720261,20.0422216 9.20870257,20.0197931 9.13020252,19.9861502 C8.97320243,19.9300787 8.81620235,19.8740073 8.65920226,19.8179358 C8.34520208,19.6945786 8.04241619,19.5600071 7.7508446,19.403007 C7.45927301,19.2460069 7.17891571,19.0665782 6.93220128,18.8535067 C6.68548686,18.6404351 6.47241531,18.3937207 6.3490581,18.1021491 L6.3490581,18.1021491 C6.31541522,18.0236491 6.22570088,17.9787919 6.14720084,17.9900062 C6.04627221,18.0124348 5.99020075,18.1021491 6.00141504,18.2030777 C6.04627221,18.3937207 6.11355796,18.5843637 6.2032723,18.7525781 C6.29298664,18.9207924 6.39391527,19.0890068 6.51727248,19.2347926 C6.75277261,19.5375785 7.02191562,19.7955072 7.31348721,20.0422216 C7.60505881,20.2777218 7.90784469,20.4907933 8.22184487,20.6926506 C8.37884496,20.7935792 8.53584504,20.8832935 8.70405942,20.9730079 C8.78255947,21.017865 8.87227381,21.0627222 8.95077385,21.1075794 L9.07413106,21.1748651 L9.14141681,21.208508 C9.1638454,21.2197223 9.18627398,21.2309366 9.20870257,21.2421509 L9.20870257,21.2421509 L9.24234544,21.2533652 C9.2984169,21.2757938 9.34327407,21.2757938 9.39934553,21.2757938 C9.4442027,21.2757938 9.48905987,21.2757938 9.53391704,21.2757938 C9.5787742,21.2757938 9.62363137,21.2645795 9.66848854,21.2645795 C9.75820288,21.2533652 9.83670292,21.2421509 9.91520296,21.2309366 C9.99370301,21.2197223 10.0722031,21.208508 10.1507031,21.1972937 C10.2292031,21.1860794 10.3077032,21.1748651 10.3862032,21.1524365 C10.6889891,21.0963651 10.991775,21.0290793 11.2833466,20.9505793 C11.5749182,20.8720792 11.8664898,20.7935792 12.1580614,20.7150792 L12.5617759,20.5917219 C12.6066331,20.670222 12.6402759,20.7375077 12.6851331,20.8160078 L8.86105951,21.9150084 L8.82741664,21.9262227 C8.77134518,21.937437 8.71527372,21.9710799 8.68163084,22.015937 L6.24812947,24.3933669 C6.15841513,24.4830813 6.14720084,24.6176528 6.22570088,24.7297957 C6.30420093,24.8419386 6.46120102,24.8643672 6.58455823,24.7858672 L9.21991686,22.8457946 L13.2907049,21.668294 C13.3243477,21.7131512 13.3692049,21.7580083 13.4028478,21.8028655 L11.2048465,22.8121518 L11.2384894,22.8009375 L11.070275,22.8682232 C11.0142036,22.8906518 10.9581321,22.9130804 10.9020607,22.935509 C10.7899177,22.9803662 10.6777748,23.0364376 10.5768462,23.0925091 C10.5207747,23.1149377 10.4647033,23.1485805 10.4198461,23.1822234 C10.3637746,23.2158663 10.3189175,23.2382949 10.262846,23.2719377 C10.2067746,23.3055806 10.1619174,23.3392235 10.1058459,23.3616521 C10.0497745,23.395295 10.0049173,23.4289378 9.96006013,23.4625807 C9.8591315,23.5298665 9.76941717,23.5971522 9.66848854,23.6756523 C9.62363137,23.7092951 9.5787742,23.7541523 9.53391704,23.7877952 L9.39934553,23.8999381 L9.26477403,24.0232953 L9.14141681,24.1466525 C9.06291677,24.2363669 8.97320243,24.3148669 8.90591668,24.4045812 C8.86105951,24.4494384 8.82741664,24.4942956 8.79377376,24.5391527 C8.77134518,24.5615813 8.76013088,24.5840099 8.7377023,24.6064385 L8.68163084,24.6737242 C8.61434509,24.7634386 8.54705934,24.8531529 8.47977358,24.9428673 C8.41248783,25.0325816 8.34520208,25.1335102 8.27791633,25.2232246 C8.21063058,25.3129389 8.15455911,25.4138675 8.08727336,25.5147962 C8.0312019,25.6157248 7.96391615,25.7054391 7.90784469,25.8063677 C7.85177323,25.9072964 7.79570177,26.008225 7.73963031,26.1091536 C7.68355885,26.2100823 7.63870168,26.3110109 7.59384451,26.4231538 C7.54898735,26.5240824 7.50413018,26.6362254 7.45927301,26.737154 C7.41441584,26.8380826 7.45927301,26.9614398 7.56020164,27.0175113 C7.67234456,27.0735827 7.80691606,27.0287256 7.86298752,26.9277969 L7.86298752,26.9277969 C7.90784469,26.8268683 7.96391615,26.737154 8.01998761,26.6474396 C8.07605907,26.5577253 8.13213053,26.4567967 8.18820199,26.3670823 C8.24427345,26.277368 8.30034491,26.1876537 8.36763066,26.0979393 C8.43491642,26.008225 8.49098788,25.9185107 8.55827363,25.8400106 C8.62555938,25.7502963 8.69284513,25.6717962 8.76013088,25.5820819 C8.82741664,25.5035819 8.89470239,25.4138675 8.97320243,25.3353675 C9.00684531,25.2905103 9.04048819,25.2568674 9.08534535,25.2120103 L9.19748827,25.0886531 L9.25355973,25.0325816 C9.26477403,25.010153 9.28720261,24.9989387 9.30963119,24.9765101 C9.34327407,24.9428673 9.37691695,24.8980101 9.42177411,24.8643672 C9.50027416,24.7970815 9.5787742,24.7185814 9.65727425,24.6512957 L9.78063146,24.550367 L9.90398867,24.4606527 L10.0273459,24.3709384 C10.0722031,24.3372955 10.1170602,24.3148669 10.1507031,24.281224 C10.2404174,24.2251526 10.3301318,24.1690811 10.4198461,24.1242239 C10.4647033,24.1017954 10.5095604,24.0793668 10.5544176,24.0457239 C10.5992748,24.0232953 10.6441319,24.0008667 10.6889891,23.9784381 C10.7338463,23.9560096 10.7787035,23.933581 10.8235606,23.9111524 C10.8684178,23.8887238 10.913275,23.8662952 10.9693464,23.8550809 C11.0590608,23.8214381 11.1599894,23.7765809 11.260918,23.7541523 L11.4067038,23.7092951 L11.5524896,23.664438 L11.5861325,23.6532237 L14.333634,22.6775803 C14.4233484,22.7560803 14.524277,22.8345804 14.6252056,22.9130804 C14.5579199,22.9691519 14.4906341,23.0252233 14.4233484,23.0812948 C14.3448483,23.1373662 14.2663483,23.204652 14.1654196,23.2607235 C14.1205625,23.2943663 14.0757053,23.3167949 14.0308481,23.3504378 C13.9747767,23.3840807 13.9299195,23.4177235 13.8738481,23.4513664 C13.6719908,23.5747236 13.4364907,23.7205094 13.2122048,23.8550809 C12.987919,24.0008667 12.7524188,24.1578668 12.5169187,24.3260812 C12.2926329,24.4942956 12.068347,24.6737242 11.8552755,24.8643672 C11.6422039,25.0550102 11.451561,25.2680817 11.2833466,25.4923676 C11.1151322,25.7166534 10.9693464,25.9409392 10.8572035,26.1764394 C10.7450606,26.4119395 10.6665605,26.6362254 10.6217034,26.8605112 C10.6104891,26.9165827 10.5992748,26.9726541 10.5880605,27.0175113 C10.5880605,27.0399399 10.5768462,27.0735827 10.5768462,27.0960113 C10.5768462,27.1184399 10.5656319,27.1520828 10.5656319,27.1745114 C10.5544176,27.2193685 10.5544176,27.27544 10.5432033,27.3202972 C10.5432033,27.3651543 10.5432033,27.4100115 10.531989,27.4548687 C10.5207747,27.544583 10.531989,27.6230831 10.531989,27.7015831 C10.531989,27.735226 10.531989,27.7800831 10.531989,27.813726 C10.531989,27.8473689 10.5432033,27.8810118 10.5432033,27.9146546 C10.5544176,27.9819404 10.5544176,28.0380119 10.5544176,28.082869 C10.5656319,28.1277262 10.5656319,28.1725834 10.5768462,28.2062262 C10.5880605,28.273512 10.5880605,28.3071549 10.5880605,28.3071549 C10.6104891,28.4192978 10.7114177,28.5090121 10.8347749,28.5090121 C10.9693464,28.5090121 11.070275,28.3968692 11.070275,28.2622977 L11.070275,28.2398691 C11.070275,28.2398691 11.070275,28.2062262 11.070275,28.1501548 C11.070275,28.1165119 11.070275,28.082869 11.070275,28.0380119 C11.070275,27.9931547 11.070275,27.9482975 11.070275,27.8922261 C11.070275,27.8697975 11.070275,27.8361546 11.070275,27.8025117 C11.070275,27.7688688 11.0814893,27.7464403 11.0814893,27.7127974 C11.0927036,27.6455116 11.0927036,27.5782259 11.1151322,27.5109401 C11.1263465,27.4772973 11.1263465,27.4324401 11.1375608,27.3987972 C11.1487751,27.3651543 11.1599894,27.3202972 11.1712037,27.2866543 C11.1712037,27.2642257 11.182418,27.2417971 11.182418,27.2305828 C11.1936323,27.2081542 11.1936323,27.1857257 11.2048465,27.1745114 C11.2160608,27.1296542 11.2272751,27.0960113 11.2497037,27.0511542 C11.3169895,26.8829398 11.3954895,26.7147254 11.5076324,26.5352967 C11.6197754,26.3670823 11.7543469,26.198868 11.9113469,26.0418679 C12.2253471,25.7278677 12.6290616,25.4475104 13.0776333,25.200796 C13.3019192,25.0774388 13.526205,24.9652958 13.7617051,24.8643672 C13.9972053,24.7522243 14.2214911,24.6512957 14.4569912,24.550367 C14.5130627,24.5279385 14.5691342,24.4942956 14.6252056,24.471867 C14.6812771,24.4382241 14.7485628,24.4157955 14.8046343,24.3821527 C14.9279915,24.3260812 15.0401344,24.2587954 15.1522773,24.1915097 C15.3765632,24.0569382 15.5784204,23.9223667 15.7578491,23.7765809 C15.791492,23.7541523 15.8251349,23.7205094 15.8587777,23.6980808 C16.6662068,24.0905811 17.5521358,24.3260812 18.4941364,24.3260812 C19.2342796,24.3260812 19.94078,24.1802954 20.6136376,23.9223667 C20.7369948,24.012081 20.8827806,24.1017954 21.0173521,24.1915097 C21.129495,24.2587954 21.2416379,24.3260812 21.3649951,24.3821527 C21.4210666,24.4157955 21.4883523,24.4494384 21.5444238,24.471867 C21.6004953,24.4942956 21.6565667,24.5279385 21.7126382,24.550367 C21.9481383,24.66251 22.1836385,24.7634386 22.4079243,24.8643672 C22.6434244,24.9765101 22.8677103,25.0886531 23.0919961,25.200796 C23.5293535,25.4475104 23.9442823,25.7166534 24.2582825,26.0418679 C24.4152826,26.198868 24.5498541,26.3670823 24.661997,26.5352967 C24.7741399,26.7035111 24.85264,26.8829398 24.9199257,27.0511542 C24.93114,27.0960113 24.9423543,27.1296542 24.9647829,27.1745114 C24.9759972,27.19694 24.9759972,27.2193685 24.9872115,27.2305828 C24.9872115,27.2530114 24.9984258,27.27544 24.9984258,27.2866543 C25.00964,27.3315115 25.0208543,27.3651543 25.0320686,27.3987972 C25.0432829,27.4324401 25.0432829,27.4772973 25.0544972,27.5109401 C25.0657115,27.5782259 25.0769258,27.6567259 25.0881401,27.7127974 C25.0881401,27.7464403 25.0993544,27.7800831 25.0993544,27.8025117 C25.0993544,27.8361546 25.0993544,27.8585832 25.0993544,27.8922261 C25.0993544,27.9482975 25.1105687,27.9931547 25.0993544,28.0380119 C25.0993544,28.082869 25.0993544,28.1165119 25.0993544,28.1501548 C25.0993544,28.2062262 25.0993544,28.2398691 25.0993544,28.2398691 L25.0993544,28.2622977 C25.0993544,28.3856549 25.1778544,28.4865835 25.3012116,28.5090121 C25.4357831,28.5314407 25.5591404,28.4417264 25.5703546,28.3071549 C25.5703546,28.3071549 25.5703546,28.273512 25.5815689,28.2062262 C25.5815689,28.1725834 25.5927832,28.1277262 25.6039975,28.082869 C25.6152118,28.0380119 25.6152118,27.9819404 25.6152118,27.9146546 C25.6152118,27.8810118 25.6152118,27.8473689 25.6264261,27.813726 C25.6264261,27.7800831 25.6264261,27.7464403 25.6264261,27.7015831 C25.6264261,27.6230831 25.6264261,27.544583 25.6264261,27.4548687 C25.6264261,27.4100115 25.6264261,27.3651543 25.6152118,27.3202972 C25.6152118,27.27544 25.6039975,27.2193685 25.5927832,27.1745114 C25.5927832,27.1520828 25.5815689,27.1296542 25.5815689,27.0960113 C25.5815689,27.0735827 25.5703546,27.0399399 25.5703546,27.0175113 C25.5591404,26.9614398 25.5479261,26.9165827 25.5367118,26.8605112 C25.4806403,26.6474396 25.4133546,26.4119395 25.3012116,26.1764394 C25.1890687,25.9409392 25.0544972,25.7166534 24.8750685,25.4923676 C24.7068542,25.2680817 24.5162112,25.0662245 24.3031396,24.8643672 C24.0900681,24.6737242 23.8657823,24.4942956 23.6414964,24.3260812 C23.4172106,24.1578668 23.1817104,24.0008667 22.9462103,23.8550809 C22.7219245,23.7092951 22.4864243,23.5747236 22.2845671,23.4513664 C22.2284956,23.4177235 22.1836385,23.3840807 22.127567,23.3504378 C22.0827098,23.3167949 22.0378527,23.2943663 21.9929955,23.2607235 C21.9705669,23.2495092 21.9481383,23.2270806 21.9257097,23.2158663 C22.0827098,23.1037234 22.2397099,22.9915804 22.39671,22.8794375 L24.5722827,23.6532237 L24.6059255,23.664438 L24.7517113,23.7092951 L24.8974971,23.7541523 C24.9984258,23.7877952 25.0881401,23.8214381 25.1890687,23.8550809 C25.2339259,23.8775095 25.2787831,23.8999381 25.3348545,23.9111524 C25.3797117,23.933581 25.4245688,23.9560096 25.469426,23.9784381 C25.5142832,24.0008667 25.5591404,24.0232953 25.6039975,24.0457239 C25.6488547,24.0681525 25.6937119,24.0905811 25.738569,24.1242239 C25.8282834,24.1690811 25.9179977,24.2251526 26.007712,24.281224 C26.0525692,24.3148669 26.0974264,24.3372955 26.1310692,24.3709384 L26.2544265,24.4606527 L26.3777837,24.550367 L26.5011409,24.6512957 C26.5796409,24.7185814 26.658141,24.7858672 26.736641,24.8643672 C26.7702839,24.8980101 26.8151411,24.9428673 26.8487839,24.9765101 C26.8712125,24.9989387 26.8824268,25.010153 26.9048554,25.0325816 L26.9609269,25.0886531 L27.0730698,25.2120103 C27.1067127,25.2568674 27.1403555,25.2905103 27.1852127,25.3353675 C27.2524985,25.4138675 27.3309985,25.5035819 27.3982842,25.5820819 C27.46557,25.6605819 27.5328558,25.7502963 27.6001415,25.8400106 C27.6674273,25.929725 27.7234987,26.008225 27.7907845,26.0979393 C27.8468559,26.1876537 27.9141417,26.277368 27.9702131,26.3670823 C28.0262846,26.4567967 28.0823561,26.546511 28.1384275,26.6474396 C28.194499,26.737154 28.2393562,26.8380826 28.2954276,26.9277969 L28.2954276,26.9277969 C28.3514991,27.0287256 28.4748563,27.0735827 28.5757849,27.0287256 C28.6879278,26.9838684 28.7439993,26.8492969 28.6991421,26.737154 C28.654285,26.6362254 28.6094278,26.5240824 28.5645706,26.4231538 C28.5197135,26.3222252 28.463642,26.2100823 28.4187848,26.1091536 C28.3627134,26.008225 28.3066419,25.9072964 28.2505704,25.8063677 C28.194499,25.7054391 28.1384275,25.6045105 28.0711418,25.5147962 C28.0150703,25.4138675 27.9477846,25.3241532 27.8804988,25.2232246 C27.8132131,25.1335102 27.7459273,25.0325816 27.6786415,24.9428673 C27.6113558,24.8531529 27.54407,24.7522243 27.4767843,24.6737242 L27.4207128,24.6064385 C27.3982842,24.5840099 27.38707,24.5615813 27.3646414,24.5391527 C27.3309985,24.4942956 27.2861413,24.4494384 27.2524985,24.4045812 C27.1739984,24.3148669 27.0954984,24.2251526 27.0169983,24.1466525 L26.8936411,24.0232953 L26.7590696,23.8999381 L26.6244981,23.7877952 C26.5796409,23.7541523 26.5347838,23.7092951 26.4899266,23.6756523 C26.4002123,23.5971522 26.2992836,23.5298665 26.198355,23.4625807 C26.1534978,23.4289378 26.0974264,23.395295 26.0525692,23.3616521 C26.007712,23.3280092 25.9516406,23.2943663 25.8955691,23.2719377 C25.8394977,23.2382949 25.7946405,23.2158663 25.738569,23.1822234 C25.6824976,23.1485805 25.6376404,23.1261519 25.5815689,23.0925091 C25.469426,23.0364376 25.3684974,22.9915804 25.2563545,22.935509 C25.200283,22.9130804 25.1442115,22.8906518 25.0881401,22.8682232 L24.9199257,22.8009375 L24.9535686,22.8121518 L23.3387105,22.0720085 C23.4059963,22.0047227 23.473282,21.9262227 23.5293535,21.8589369 L26.9384983,22.8457946 L29.5738569,24.7858672 C29.6747855,24.8643672 29.8205713,24.8531529 29.9102857,24.7634386 C30.0112143,24.66251 30.0112143,24.5055099 29.9102857,24.4045812 L27.3197842,22.0271513 C27.274927,21.9822942 27.2300699,21.9598656 27.1627841,21.937437 L27.1291412,21.9262227 L24.0003538,21.0290793 C24.0452109,20.9505793 24.0900681,20.8832935 24.1349253,20.8047935 C24.3255682,20.860865 24.5162112,20.9057221 24.7068542,20.9505793 C24.9984258,21.0290793 25.3012116,21.0963651 25.6039975,21.1524365 C25.6824976,21.1636508 25.7609976,21.1860794 25.8394977,21.1972937 C25.9179977,21.208508 25.9964977,21.2197223 26.0749978,21.2309366 C26.1534978,21.2421509 26.2319979,21.2533652 26.3217122,21.2645795 C26.3665694,21.2645795 26.4114265,21.2757938 26.4562837,21.2757938 C26.5011409,21.2757938 26.5459981,21.2757938 26.5908552,21.2757938 C26.6469267,21.2757938 26.7029981,21.2645795 26.7590696,21.2533652 L26.7927125,21.2421509 L26.7927125,21.2421509 C26.8263554,21.2309366 26.8375696,21.2197223 26.8599982,21.208508 L26.927284,21.1748651 L27.0506412,21.1075794 C27.1291412,21.0627222 27.2188556,21.017865 27.2973556,20.9730079 C27.4543557,20.8832935 27.6225701,20.7823649 27.7795702,20.6926506 C28.0935704,20.4907933 28.3963562,20.2777218 28.6879278,20.0422216 C28.9794994,19.8067215 29.2486424,19.5375785 29.4841426,19.2347926 C29.5962855,19.0890068 29.7084284,18.9207924 29.7981427,18.7525781 C29.8878571,18.5843637 29.9551428,18.3937207 30,18.2030777 C29.9887857,18.1245777 29.9439285,18.0460777 29.8654285,18.0124348 Z" id="Shape"></path>
        </g>
    </g>
</svg>